<?xml version="1.0" standalone="no"?>
<!DOCTYPE svg PUBLIC "-//W3C//DTD SVG 1.1//EN" "http://www.w3.org/Graphics/SVG/1.1/DTD/svg11.dtd" >
<svg xmlns="http://www.w3.org/2000/svg">
<metadata>
Created by FontForge 20120731 at Wed Dec  9 08:41:47 2015
 By Ads
</metadata>
<defs>
<font id="iconfont" horiz-adv-x="1024" >
  <font-face 
    font-family="iconfont"
    font-weight="500"
    font-stretch="normal"
    units-per-em="1024"
    panose-1="2 0 6 3 0 0 0 0 0 0"
    ascent="896"
    descent="-128"
    x-height="792"
    bbox="-1.09091 -224.75 1256 879"
    underline-thickness="50"
    underline-position="-100"
    unicode-range="U+0078-E735"
  />
<missing-glyph horiz-adv-x="374" 
d="M34 0v682h272v-682h-272zM68 34h204v614h-204v-614z" />
    <glyph glyph-name=".notdef" horiz-adv-x="374" 
d="M34 0v682h272v-682h-272zM68 34h204v614h-204v-614z" />
    <glyph glyph-name=".null" horiz-adv-x="0" 
 />
    <glyph glyph-name="nonmarkingreturn" horiz-adv-x="341" 
 />
    <glyph glyph-name="x" unicode="x" horiz-adv-x="1001" 
d="M281 543q-27 -1 -53 -1h-83q-18 0 -36.5 -6t-32.5 -18.5t-23 -32t-9 -45.5v-76h912v41q0 16 -0.5 30t-0.5 18q0 13 -5 29t-17 29.5t-31.5 22.5t-49.5 9h-133v-97h-438v97zM955 310v-52q0 -23 0.5 -52t0.5 -58t-10.5 -47.5t-26 -30t-33 -16t-31.5 -4.5q-14 -1 -29.5 -0.5
t-29.5 0.5h-32l-45 128h-439l-44 -128h-29h-34q-20 0 -45 1q-25 0 -41 9.5t-25.5 23t-13.5 29.5t-4 30v167h911zM163 247q-12 0 -21 -8.5t-9 -21.5t9 -21.5t21 -8.5q13 0 22 8.5t9 21.5t-9 21.5t-22 8.5zM316 123q-8 -26 -14 -48q-5 -19 -10.5 -37t-7.5 -25t-3 -15t1 -14.5
t9.5 -10.5t21.5 -4h37h67h81h80h64h36q23 0 34 12t2 38q-5 13 -9.5 30.5t-9.5 34.5q-5 19 -11 39h-368zM336 498v228q0 11 2.5 23t10 21.5t20.5 15.5t34 6h188q31 0 51.5 -14.5t20.5 -52.5v-227h-327z" />
    <glyph glyph-name="uniE600" unicode="&#xe600;" 
d="M832 -212h-576q-53 0 -90.5 37.5t-37.5 90.5v640l384 -128h64l384 128v-640q0 -53 -37.5 -90.5t-90.5 -37.5zM577 110h93q31 0 32 27q1 11 -8.5 23.5t-23.5 12.5h-93v23q70 72 89 88q14 13 16.5 23t-5.5 21q-9 10 -22 10t-24 -10l-87 -79l-7 7q-4 4 -15.5 16t-21 21.5
t-18.5 19t-13 13.5q-11 10 -25 13.5t-26 -6.5q-9 -14 -6 -25.5t11 -19.5l87 -91l-1 -25h-96q-10 0 -18.5 -13.5t-8.5 -25.5q0 -10 7.5 -17t19.5 -7l96 1v-69h-100q-11 0 -19 -8.5t-8 -19.5q-1 -11 7 -21.5t20 -10.5h100v-33q1 -10 5.5 -17t12 -10.5t17.5 -3.5q14 0 23.5 9.5
t9.5 20.5q0 12 -1 34q84 1 99 0q3 0 5 0.5t4 1.5l4 2q2 1 3.5 3t3 3.5t3 3.5t2.5 4.5t1.5 4.5t0.5 4v5q0 13 -8.5 21t-25.5 8h-91v68zM576 492h-64l-384 128q0 53 37.5 90.5t90.5 37.5h576q53 0 90.5 -37.5t37.5 -90.5z" />
    <glyph glyph-name="uniE601" unicode="&#xe601;" horiz-adv-x="1000" 
d="M875 675h-63v63q0 25 -18 43.5t-44 18.5h-625q-26 0 -44.5 -18.5t-18.5 -43.5v-750q0 -26 18.5 -44.5t44.5 -18.5h63v-63q0 -25 18 -43.5t44 -18.5h625q26 0 44.5 18.5t18.5 43.5v750q0 26 -18.5 44.5t-44.5 18.5zM404 675h252q13 0 22.5 -9t9.5 -22t-9.5 -22.5
t-22.5 -9.5h-252q-13 0 -22.5 9.5t-9.5 22.5t9.5 22t22.5 9zM216 488h440q13 0 22.5 -9.5t9.5 -22.5q0 -8 -4.5 -15.5t-11.5 -11.5t-16 -4h-440q-13 0 -22 9t-9 22t9 22.5t22 9.5zM216 300h440q13 0 22.5 -9t9.5 -22t-9.5 -22t-22.5 -9h-440q-13 0 -22 9t-9 22t9 22t22 9z
M216 50q-13 0 -22 9t-9 22t9 22t22 9h440q13 0 22.5 -9t9.5 -22t-9.5 -22t-22.5 -9h-440zM875 -138h-625v63h500q26 0 44 18.5t18 44.5v624h63v-750z" />
    <glyph glyph-name="uniE602" unicode="&#xe602;" horiz-adv-x="1000" 
d="M926 469q-2 5 -5 9.5t-7 7.5t-9 5t-11 2l-254 14l-92 238q-9 22 -33 22q-11 0 -20 -6t-12 -16l-92 -238l-255 -14q-24 -1 -31 -24q-2 -4 -2 -8.5t0.5 -8.5t2 -7.5t4 -7t6.5 -6.5l198 -161l-66 -246q-6 -23 13 -38q5 -3 10 -4.5t11 -1.5q10 0 19 5l214 139l214 -139
q9 -5 19 -5q12 0 21 6q19 15 13 38l-66 246l199 161q18 15 11 38z" />
    <glyph glyph-name="uniE603" unicode="&#xe603;" 
d="M650 295q13 0 23 6.5t16 17.5t6 23q0 5 -0.5 9t-2 8t-3.5 7.5t-5 6.5l-4 6q-3 3 -6.5 5t-7 3.5t-7.5 2t-9 0.5h-68l80 85q13 14 13 33.5t-13.5 33.5t-32 14t-31.5 -14l-86 -91l-86 91q-13 14 -31.5 14t-32 -14t-13.5 -33.5t13 -33.5l80 -85h-68q-13 0 -23 -6.5t-16 -17.5
t-6 -24q0 -19 13 -33t32 -14h93v-42h-93q-19 0 -32 -14t-13 -33q0 -13 6 -24t16 -17.5t23 -6.5h93v-66q0 -20 13 -34t32 -14t32 14t13 34v66h93q13 0 23 6.5t16 17.5t6 24q0 19 -13 33t-32 14h-93v42h93zM810 812h-596q-88 0 -151 -63t-63 -151v-596q0 -88 63 -151t151 -63
h596q88 0 151 63t63 151v596q0 88 -63 151t-151 63zM953 2q0 -38 -19.5 -71t-52.5 -52t-71 -19h-596q-59 0 -101 41.5t-42 100.5v596q0 59 42 101t101 42h596q59 0 100.5 -42t41.5 -101v-596h1z" />
    <glyph glyph-name="uniE604" unicode="&#xe604;" 
d="M173 360h280v-280h-280v280zM509 136h168v-56h-168v56zM509 248h224v-56h-224v56zM509 360h224v-56h-224v56zM173 471h560v-55h-560v55zM789 24h-671v559h671v-559zM845 527v112h-783v-615q0 -23 16 -39.5t40 -16.5h755q35 0 59.5 24.5t24.5 59.5v475h-112z" />
    <glyph glyph-name="uniE605" unicode="&#xe605;" 
d="M1013 -112l-198 198q84 118 84 263q0 73 -22.5 141.5t-64 124t-97 97t-124 64t-141.5 22.5q-91 0 -174.5 -35.5t-143.5 -95.5t-95.5 -143.5t-35.5 -174.5q0 -73 22.5 -141.5t64 -124t97 -97t124 -64t141.5 -22.5q145 0 263 84l198 -198q5 -5 10 -7.5t10.5 -3t11 0t10.5 3
t9 7.5l51 51q20 19 7 42q-3 5 -7 9zM129 349q0 87 43 161t117 117t161 43q52 0 101 -16.5t88.5 -46t69 -69t46 -88.5t16.5 -101q0 -87 -43 -161t-117 -117t-161 -43q-65 0 -124.5 25.5t-102.5 68.5t-68.5 102.5t-25.5 124.5z" />
    <glyph glyph-name="uniE606" unicode="&#xe606;" 
d="M-53 829zM931 588q29 0 44 -8q8 -3 13.5 -7.5t8.5 -9.5q7 -11 6 -23q0 -5 -0.5 -9t-1 -7t-1.5 -7l-14 -36l-21 -61l-23 -65q-14 -42 -17 -52q-7 -18 -15.5 -32t-17.5 -22q-20 -15 -49 -15h-525l15 -88h503q49 0 49 -41q0 -20 -10 -34q-9 -15 -38 -15h-524q-6 0 -12 1
t-11 3t-10 5q-13 9 -22 23q-4 7 -8 14.5t-7 16.5q-6 21 -8 32l-5 29l-12 56l-14 76l-16 85l-43 222h-75q-16 0 -25 7q-10 7 -17 17q-3 7 -5.5 12.5t-3.5 11t-1.5 11t-0.5 9.5q0 20 13 34q7 5 16 8.5t20 3.5h102q20 0 32 -6q5 -3 10 -6.5t10 -7.5q6 -10 8 -19l6 -18
q1 -4 3 -16v-6l5 -28l5 -38h684zM764 28q8 0 17.5 -2t18.5 -5q18 -7 30 -20q13 -13 21 -29q6 -16 6 -35q0 -9 -1.5 -18.5t-4.5 -16.5q-8 -16 -21 -30q-12 -12 -30 -19q-17 -8 -36.5 -8t-36.5 8t-29 19q-13 14 -19 30q-8 16 -8 35q0 9 1.5 18t6.5 17q6 16 19 29q6 7 13.5 12
t15.5 8q6 2 12 3.5t12 2.5t13 1zM348 30q18 0 36 -7q17 -6 30 -20q6 -6 11 -13.5t9 -14.5q7 -18 7 -36t-7 -35q-7 -15 -20 -30q-13 -12 -30.5 -19t-35.5 -7q-20 0 -37 6q-16 8 -30 20q-13 15 -19 30q-7 17 -7 35t7 36q3 7 8 14.5t11 13.5q5 5 10 8l9 7q6 3 11 5q5 1 9 3
t8.5 2.5t9.5 1t10 0.5z" />
    <glyph glyph-name="uniE607" unicode="&#xe607;" horiz-adv-x="1256" 
d="M187 332q183 -80 441 -80t441 80q90 39 138.5 91t48.5 109q0 38 -21.5 74t-63.5 68t-102 58q-89 39 -202.5 59.5t-238.5 20.5q-258 0 -441 -80q-90 -40 -138.5 -91.5t-48.5 -108.5t48.5 -109t138.5 -91zM249 659q157 56 379 56q107 0 205 -14.5t174 -41.5
q36 -13 64.5 -28t48 -31t29.5 -33.5t10 -34.5q0 -35 -39.5 -68.5t-112.5 -59.5q-157 -56 -379 -56t-379 56q-73 26 -112.5 59.5t-39.5 68.5t39.5 68t112.5 59zM1217 163l-8 -12q-19 -29 -52 -54l-6 -4l2 -6q1 -3 3 -7q3 -8 3 -12q0 -35 -39.5 -68t-112.5 -59
q-157 -56 -379 -56t-379 56q-73 26 -112.5 59t-39.5 68q0 4 3 12q2 4 2 7l2 6l-5 4q-33 25 -53 54l-8 12l-8 -12q-30 -44 -30 -83q0 -57 48.5 -108.5t138.5 -91.5q183 -80 441 -80t441 80q90 40 138.5 91.5t48.5 108.5q0 39 -31 83zM1217 394l-8 -11q-19 -29 -52 -54l-6 -4
l2 -7q1 -1 1.5 -2.5t1.5 -3.5q3 -9 3 -12q0 -35 -39.5 -68.5t-112.5 -58.5q-157 -56 -379 -56t-379 56q-48 17 -82.5 37.5t-52 43.5t-17.5 46q0 3 3 12q2 4 2 6l2 7l-5 4q-33 25 -53 54l-8 11l-8 -11q-30 -45 -30 -83q0 -57 48.5 -109t138.5 -91q183 -80 441 -80t441 80
q90 39 138.5 91t48.5 109q0 38 -31 83z" />
    <glyph glyph-name="uniE608" unicode="&#xe608;" 
d="M350 163q30 -20 60 -42q25 -20 54 -45t52 -54l-122 -53q-19 49 -47 87t-46 60q-27 -49 -80.5 -85.5t-142.5 -69.5l-42 64q44 13 77.5 31t57 45.5t35 68t11.5 97.5v249h111v-274q0 -52 -13 -93zM982 442q1 -43 -0.5 -118t-12.5 -198q-4 -43 -22 -71.5t-45.5 -46.5
t-59.5 -27t-65 -11t-63 0.5t-52 7.5l17 71l31 -9q58 -6 87.5 20.5t42.5 81.5l-82 -42q-2 11 -5.5 21t-8.5 21q-37 -11 -79.5 -19.5t-85.5 -8.5q-45 0 -69 26.5t-12 65.5q3 12 10.5 29.5t17.5 38.5t21.5 44t22.5 44q27 52 60 110l114 -50q-29 -43 -55 -80q-11 -15 -22 -32
l-21 -31l-18 -27l-12 -20q-15 -23 -10 -35t47 -12q18 0 35.5 3.5t34.5 9.5q-8 16 -15 30.5t-12 25.5q-6 12 -11 23l59 28q12 -12 25.5 -31t27.5 -38.5t26 -37.5l21 -31q8 48 8.5 112t0.5 144q0 41 -5.5 70.5t-31.5 40.5t-80 -1t-151 -53q-15 -17 -37 -42t-42 -43
q1 -1 -8.5 6.5t-20.5 15.5v-235h-107v346q0 12 -2 28t-19.5 26.5t-57 8.5t-114.5 -28v-381h-110v467h110v-23q90 15 148.5 19t92.5 -5t46.5 -33t12.5 -65v-42q21 30 38 61.5t29 57.5q13 31 24 60l127 -40l-14 -22q-6 -10 -15 -21.5t-17 -26.5q80 26 136 29.5t92.5 -6
t57.5 -29.5t31.5 -43t13 -44t2.5 -34z" />
    <glyph glyph-name="uniE609" unicode="&#xe609;" 
d="M533 187l16 -68l27 77l-26 19zM464 196l27 -77l15 68l-18 29zM656 262l-12 12l-11 -11l1 -2l16 -5l3 -1zM687 276l-11 -14l4 -17h2l2 -1q4 -1 7 -3l9 23zM854 747h-683q-44 0 -75 -31t-31 -75v-683q0 -44 31 -75t75 -31h683q44 0 75 31t31 75v683q0 44 -31 75t-75 31z
M282 187q-3 -8 -4 -15h-4q-3 0 -5.5 0.5t-4.5 1.5q-7 1 -12 2q-4 0 -6.5 0.5t-4.5 1.5q-9 1 -10.5 8.5t-0.5 13.5l5 22q1 8 2.5 14.5t2.5 11.5q4 22 22 31q2 1 5.5 2t7.5 3q11 3 17 5l15 4q2 0 4 1h4l2 1q6 2 8.5 4.5t2.5 6.5v11v8l-6 6q-1 1 -1.5 2t-1.5 2l-2 2q-3 4 -5 6
q-3 5 -7 14q-3 7 -4 16l-2 9h-1l-2 2q-2 1 -3 3l-2 7q-1 5 0 12l1 15v10q1 4 1.5 7.5t1.5 6.5q2 8 7 15q4 7 11 12q9 7 19 9q10 3 19 4q10 0 20 -1q-1 -8 -1.5 -16t-0.5 -16q-1 -13 0 -30q2 -16 5 -32q2 -11 6 -21q2 -5 4 -9.5t5 -8.5q2 -5 4.5 -9t4.5 -8v-7q-1 -3 -1 -7v-6
v-6q0 -2 1 -4q2 -4 5 -5q3 -2 7 -3l9 -3q4 -1 10 -3v-2v-2v-1v-4q-1 -6 -5.5 -7t-11.5 -3l-6 -1l-6 -1l-5 -1l-11 9l-11 -15h-3q-2 -2 -4 -2l-7 -2l-14 17l-14 -11l6 -16q-7 -4 -16 -11l-13 -11q-7 -5 -12 -11t-9 -13q-3 -7 -5 -15zM734 59q-2 -3 -5.5 -5t-10.5 -4l-12 -2
q-8 -2 -18 -3.5t-21.5 -3t-25.5 -2.5q-25 -3 -58 -4q-31 -2 -67 -2q-17 0 -34 0.5t-33 0.5q-33 2 -58 4q-9 1 -17.5 1.5t-16 1.5t-14.5 2q-10 2 -18 3.5t-14 2.5l-6 3q-4 2 -7 5q-4 3 -5.5 7t-1.5 9q1 2 1.5 6.5t2.5 14.5q3 19 6 34q1 6 3.5 17.5t3.5 16.5q3 16 4 19
q1 4 3 8t4.5 8.5t6 9t9 9t20.5 9.5q7 2 15 4.5t16 5.5q5 1 10.5 2.5t10 2.5t9.5 2q4 1 6.5 1.5t5 1.5t4.5 1.5t3 0.5q9 2 16 5q2 1 3.5 2t2.5 2.5t1 3.5v37q-7 6 -13 13q-5 6 -11 14q-1 2 -2.5 4t-2.5 4.5t-2.5 4.5t-2.5 4q-8 18 -11 33q0 2 -0.5 5t-1 4.5t-0.5 3t-0.5 2.5
t-0.5 2t-1.5 2t-3.5 2t-3 2.5t-2 4.5q-5 11 -5 23t2 35q0 11 2 22t5 21q0 4 1.5 7.5t3 6.5t3.5 6t4 6.5t5 6.5l6 6q10 8 24 14l16 4l16 4q16 2 30.5 2t21.5 -2q2 0 4 -1t3.5 -1.5t3 -1.5t2.5 -1q2 -2 4 -3t4 -3q3 -3 4 -5q2 -2 4 -3q3 -3 8 -2q2 1 6.5 0.5t10.5 -1.5
q14 -4 24 -16q3 -5 5 -9.5t3.5 -10t1.5 -12.5v-8q0 -4 1 -10v-26q0 -13 -1 -24q0 -6 -1 -9.5t-2 -4.5q-2 -2 -3.5 -3t-3.5 -1q-4 0 -4 -4v-1v-3v-4q0 -2 -0.5 -5t-1 -6.5t-1 -7.5t-1.5 -8.5t-2 -10.5q-2 -11 -7 -19q-2 -5 -4.5 -9t-4.5 -7q-3 -4 -6.5 -7.5t-6.5 -7.5v-16
v-13v-7v-4q1 -8 4 -11q2 -2 5 -3.5t7 -2.5q3 -2 11 -4q2 -1 4.5 -1.5t4.5 -1.5l6 -2q2 -1 5 -2l23 -9l23 -8q8 -4 19 -8q9 -4 13 -6q6 -3 10.5 -6.5t6.5 -6.5q4 -8 7 -18q1 -7 3 -22l5 -32l2 -16l2 -16q1 -14 2 -19v-5q0 -3 -1 -5zM793 183l-2 -2q-1 -1 -3 -1.5t-4 -1.5
l-16 -3q-10 -2 -26 -3q-1 7 -4 15q-3 9 -4 13q-3 7 -6 13q-4 4 -7.5 8t-7 7t-7 5.5t-7.5 4.5t-8 3l-11 4q-7 2 -11 4q-3 1 -6.5 2t-6.5 2t-6 3l-16 4v1l-8 2q-4 1 -7 2q-19 4 -22 8q0 1 -0.5 2t-0.5 2q-1 3 -1 6q0 2 0.5 3.5t0.5 3.5q4 2 7.5 2.5t5.5 0.5l7 2q5 1 9 3
q4 1 4 5v22l-1 1l-3 1l-2 3q4 9 7 21q3 9 7 25q1 3 1.5 7.5t1.5 9t1.5 9t1.5 9.5q1 9 1.5 16t0.5 13q1 14 1 23v20q7 2 15.5 2t13.5 -2q5 -1 8 -3t4 -3.5t2.5 -2.5t2.5 -2q2 -2 5 -1q2 0 4.5 -0.5t5.5 -0.5q9 -2 14 -9.5t6 -18.5v-3v-3q0 -2 1 -5v-15v-6v-4v-5
q-1 -3 -1.5 -5t-0.5 -3q-3 -2 -5 -2q-1 0 -1.5 -0.5t-0.5 -1.5v-8q-1 -7 -4 -20q0 -2 -0.5 -4t-1.5 -4t-1 -4q-3 -5 -6 -9t-7 -8q-1 -6 -1 -10v-15q1 -4 2.5 -6t7.5 -4l12 -4q5 -1 10 -3l10 -4l20 -8q3 -1 5.5 -2t4 -2t3.5 -1q7 -4 10 -8l4 -12q0 -1 2 -12v-3q0 -2 0.5 -4.5
t0.5 -4t0.5 -4t0.5 -3.5q2 -14 2 -19q1 -3 1 -5t0.5 -3.5t0.5 -2.5q0 -5 -2 -9z" />
    <glyph glyph-name="uniE60A" unicode="&#xe60a;" 
d="M410 243h-364q-13 0 -23.5 -6t-16.5 -16.5t-6 -22.5v-364q0 -19 13.5 -32.5t32.5 -13.5h364q18 0 31.5 13.5t13.5 32.5v364q0 19 -13.5 32t-31.5 13zM410 812h-364q-19 0 -32.5 -13.5t-13.5 -31.5v-365q0 -19 13.5 -32.5t32.5 -13.5h364q12 0 22.5 6.5t16.5 17t6 22.5
v365q0 18 -13.5 31.5t-31.5 13.5zM364 470q0 -4 -2 -8.5t-5 -7.5t-7 -4.5t-9 -1.5h-250q-9 0 -16 6.5t-7 15.5v251q0 5 2 9t5 7t7 5t9 2h250q10 0 16.5 -7t6.5 -16v-251zM978 812h-364q-18 0 -31.5 -13.5t-13.5 -31.5v-365q0 -19 13.5 -32.5t31.5 -13.5h364q19 0 32.5 13.5
t13.5 32.5v365q0 12 -6 22.5t-16.5 16.5t-23.5 6zM978 243h-364q-12 0 -22.5 -6t-16.5 -16.5t-6 -22.5v-365q0 -7 2 -14t6.5 -12.5t10 -9.5t12.5 -6.5t14 -2.5h364q19 0 32.5 13.5t13.5 31.5v365q0 9 -3.5 17.5t-9.5 14.5t-14.5 9.5t-18.5 3.5z" />
    <glyph glyph-name="uniE60B" unicode="&#xe60b;" 
d="M516 747q-46 0 -91 -9t-85.5 -25.5t-77 -40.5t-67 -53.5t-55.5 -65t-42 -74.5t-26 -82.5t-9 -88.5q0 -90 36 -171t96.5 -140t144.5 -93.5t176 -34.5t176 34.5t144.5 93.5t96.5 140t36 171q0 71 -23 138t-65 121t-97.5 94.5t-124.5 63t-143 22.5zM320 520q11 0 21 -4
t17 -10t11.5 -15t4.5 -18q0 -13 -7.5 -24t-20 -17.5t-27 -6.5t-27.5 6.5t-20 17.5t-7 24q0 30 31 42q12 5 24 5zM365 235q-5 -17 -9 -26.5t-8 -17.5t-18.5 -37.5t-32.5 -66.5l-83 50q93 82 112 119q8 20 3 33t-15 20l-11 7l-63 39l34 51q36 -26 48 -35.5t36 -33.5
q12 -12 16 -28t1.5 -33.5t-10.5 -40.5zM791 145q0 -89 -157 -60l12 39q35 -8 46 -1t13 29h-207v-71h-88v236h88v-15q69 11 118 15.5t81 2t51 -7.5t28.5 -18.5t12 -26.5t2.5 -35v-87zM818 337h-444v39h178v22h-136v39h136v22h-160v38h160v29h88v-29h156v-38h-156v-22h131v-39
h-131v-22h178v-39zM498 190h208v23h-208v-23zM498 261v-9h206q-4 14 -20 19.5t-61 3.5t-125 -14z" />
    <glyph glyph-name="uniE60C" unicode="&#xe60c;" 
d="M509 151q-96 77 -168 167q-17 20 -27 35t-18 33t-6 33t15 28l-240 238q-8 -11 -16 -28.5t-13 -48t-3.5 -66.5t16 -85.5t41.5 -103t76.5 -120.5t117.5 -137q72 -73 142 -127.5t126 -83.5t107.5 -45.5t90 -18.5t70 3t49.5 13.5t28 18.5l-233 233q-28 -28 -81 5
q-25 17 -74 57zM981 -9l-182 182q-11 10 -26 10t-26 -10l-66 -66l234 -234l66 66q11 12 11 26.5t-11 25.5zM389 530v1q7 7 9.5 16.5t-0.5 19t-9 15.5v1l-188 186q-7 7 -16.5 9.5t-18.5 0t-16 -9.5l-66 -66l239 -238l33 33z" />
    <glyph glyph-name="uniE60D" unicode="&#xe60d;" 
d="M874 -115l-253 136h-473q-26 0 -48.5 13t-35 35t-12.5 48v506q0 39 28 67.5t68 28.5h728q40 0 68 -28.5t28 -67.5v-506q0 -26 -12.5 -48t-34.5 -35t-49 -13h-3zM148 655q-9 0 -16.5 -4.5t-11.5 -12t-4 -15.5v-506q0 -13 9 -22.5t23 -9.5h490l171 -92v92h67q14 0 23 9.5
t9 22.5v506q0 13 -9 22.5t-23 9.5h-728zM740 289h-439v64h439v-64zM740 417h-439v64h439v-64z" />
    <glyph glyph-name="uniE60E" unicode="&#xe60e;" 
d="M1022 313v-144q0 -27 -18.5 -37t-50.5 -10h-47q-8 -51 -47 -90.5t-88 -39.5q-48 0 -87 40.5t-47 92.5h-246q-8 -52 -47 -92.5t-87 -40.5q-49 0 -88 39.5t-47 90.5h-47q-69 0 -69 47v144v9v9q0 72 51.5 124t124.5 52q35 93 134 152.5t224 59.5q86 0 161.5 -28.5t127.5 -79
t74 -113.5q53 -19 86 -64.5t33 -102.5v-9v-9zM697 102q3 -6 6 -11.5t6 -10.5h1l3 -4l1 -1l2 -2l2 -2v0q4 -4 8 -7l1 -1l4 -2q1 -1 3 -2q0 -1 1 -1t2 -1t3 -2q1 0 2 -1h1q3 -1 7 -2l1 -1h1q3 -1 5 -1l2 -1h3h3q1 -1 2 -1h4h4h7q1 0 3 1h5q1 1 2 1q3 0 6 1v1h2l6 2l3 1
q1 1 2 1.5t2 0.5l3 2l1 1q1 0 2 1l3 2v1h2l7 7h1q1 1 3 4l1 1l2 2l2 2q7 10 12 22q5 14 5 29q0 45 -47 68q-3 1 -7 3h-1q-3 1 -5 1.5t-4 1.5h-1h-2q-2 1 -4 1h-2h-2l-7 1q-4 0 -8 -1h-1q-3 0 -7 -1h-2q-2 0 -3 -0.5t-2 -0.5l-4 -2h-1q-4 -2 -8 -3q-47 -23 -47 -68
q0 -15 5 -29zM179 99q2 -6 5 -11.5t7 -10.5l4 -4q0 -1 1 -1q2 -2 3 -4h1l4 -4l3 -3l1 -1h1l1 -2h2q2 -1 3 -2t2 -1t1.5 -0.5t1.5 -1t2 -1.5h1l2 -1l6 -2l2 -1q3 -1 6 -1l2 -1h5q2 -1 3 -1h7h8l2 1h3h2l1 1h2q2 0 5 1h1l1 1q4 1 7 2l2 1q3 2 4 2q1 1 2 1t1 1q2 1 3 2l3 2h1
l1 1q4 3 8 7v0l4 4q1 0 1 1q2 2 3 4q8 10 12 22q6 14 6 29q0 45 -47 68q-4 1 -8 3h-1q-2 1 -4 1.5t-5 1.5q-1 0 -2.5 0.5t-3.5 0.5h-3l-1 1h-8h-7l-2 -1q-3 0 -6 -1h-3l-4 -1q-2 -1 -5 -2h-1q-2 -1 -4 -1.5t-3 -1.5q-22 -11 -34.5 -27.5t-12.5 -40.5q0 -8 1.5 -15t3.5 -14z
M236 507h274v161q-139 -10 -225 -94q-32 -31 -49 -67zM548 669v-162h297q-34 71 -115 115.5t-182 46.5zM831 457l-625 3q-61 0 -104.5 -39.5t-45.5 -98.5h1v-126q0 -4 2.5 -8t6 -6.5t8.5 -2.5h62q18 34 50.5 57t70 23t70 -23t50.5 -57h274q12 22 29.5 40t41.5 29t49 11
q39 0 71.5 -20t49.5 -53h62q3 0 6.5 1.5t5.5 3.5t3.5 5.5t1.5 6.5v116h1q-3 60 -42 99t-99 39z" />
    <glyph glyph-name="uniE60F" unicode="&#xe60f;" 
d="M512.5 805q-102.5 0 -196 -40t-161 -107.5t-107.5 -161t-40 -196.5t40 -196.5t107.5 -161t161 -107.5t195.5 -40q83 0 160 25.5t139 72.5t108.5 109t72 139t25.5 159q0 103 -40 196.5t-107.5 161t-161 107.5t-196 40zM512 -141q-72 0 -139 22t-121.5 63t-95.5 95
t-63 121.5t-22 139.5q0 90 35 171.5t94 141t141 94.5t171.5 35t171.5 -35t141 -94.5t94 -141t35 -171.5t-35 -171.5t-94 -141t-141 -94t-172 -34.5zM514.5 684q-104.5 0 -193 -51.5t-140 -140t-51.5 -192.5t51.5 -192.5t140 -140t193 -51.5t193 51.5t140 140t51.5 192.5
t-51.5 192.5t-140 140t-193 51.5zM514 172q-53 0 -90.5 37.5t-37.5 90.5q0 35 17.5 64.5t47 46.5t63.5 17q53 0 90.5 -37.5t37.5 -90.5q0 -35 -17 -64.5t-46.5 -46.5t-64.5 -17zM546 619q96 -10 171 -71l-91 -91l2 -1l1 -2q-37 28 -83 36v-1v130zM542 490zM482 489l1 1
q-46 -8 -84 -36q2 1 4 3l-91 91q36 30 79.5 48t90.5 23v-130zM486 490zM196 332q9 96 70 171l92 -92q0 1 1 2t1 2q-28 -37 -35 -83h-129zM325 268q7 -43 33 -79l-92 -92q-61 75 -70 171h129zM403 143q36 -25 79 -32v-130q-96 10 -170 71zM546 111q44 7 80 32l91 -91
q-75 -61 -171 -71v130zM671 189q26 36 33 79h129q-5 -48 -23 -91.5t-48 -79.5zM704 332q-3 15 -8 29.5t-12 28t-16 25.5q2 -2 3 -4l91 92q61 -75 71 -171h-129z" />
    <glyph glyph-name="uniE610" unicode="&#xe610;" 
d="M526 742q-59 0 -113 -23t-93 -61.5t-62 -92.5t-23 -113q0 -120 85.5 -205t205.5 -85q59 0 112.5 23t92.5 62t62 92.5t23 112.5t-23 113t-62 92.5t-92.5 61.5t-112.5 23zM750 168q-101 -79 -224 -79q-124 0 -224 79q-90 -57 -146 -151t-65 -207q86 -11 219 -11h431
q133 0 219 11q-8 113 -64.5 207t-145.5 151z" />
    <glyph glyph-name="uniE611" unicode="&#xe611;" horiz-adv-x="1027" 
d="M318 242h133l-2 -136h-128zM641 235h128v-129h-128v129zM449 556h192v-129h-192v129zM893 747q29 0 53 -10.5t42 -29t28 -43.5t10 -54v-621q0 -29 -10 -54t-28 -43.5t-42 -29.5t-53 -11h-691q-29 0 -54 11t-43.5 29.5t-29 43.5t-10.5 54v621q0 29 10.5 54t29 43.5
t43.5 29t54 10.5h691zM512 -17q-1 5 -1.5 29t-0.5 57v71q0 38 0.5 71.5t1 57.5t1.5 30q-6 -1 -25 -1.5t-45 -1t-55.5 -0.5t-56 0.5t-47 1t-27.5 1.5q1 -5 1.5 -28.5t1 -57t0.5 -72t-0.5 -72.5t-1 -59t-1.5 -32h61l3 65h128l2 -60h61zM385 363q10 2 35.5 3t59 1.5t70.5 0.5
t69 -0.5t55.5 -1t31.5 -1.5q-1 5 -2 24.5t-1.5 46t-0.5 56.5t0.5 56.5t1.5 46t2 24.5q-8 -1 -32 -1.5t-56.5 -1t-69.5 -0.5h-71q-33 0 -58 1t-34 2q1 -4 1.5 -22.5t0.5 -45.5v-58v-58q0 -27 -0.5 -46.5t-1.5 -25.5zM833 -14q-2 5 -2 28v57v71v72q0 33 1 56.5t2 28.5
q-8 -1 -27.5 -1.5t-46 -1t-55.5 -0.5h-56q-25 0 -45 0.5t-26 1.5q1 -5 1.5 -29t0.5 -57v-72v-72q0 -34 -0.5 -58.5t-1.5 -31.5h59l4 65h128l3 -57h61z" />
    <glyph glyph-name="uniE612" unicode="&#xe612;" 
d="M968 288h48v92l-145 124v189h-122v-93l-212 192h-48l-481 -432v-72h48l466 405zM521 647l-416 -359l287 -70v142h261v-142l288 46zM105 288v-480h285v382h265l-2 28h-261zM655 190l-2 28l288 46v-456h-286v382z" />
    <glyph glyph-name="uniE613" unicode="&#xe613;" horiz-adv-x="1537" 
d="M946 -180q39 0 66.5 27.5t27.5 66.5q0 44 -34 73l-301 301l299 298q36 29 36 75q0 39 -27.5 66.5t-66.5 27.5q-20 0 -37.5 -7.5t-30.5 -21.5l-377 -377h1q-23 -27 -23 -62q0 -42 31 -70l366 -366q5 -5 11 -10t13 -9t14.5 -6.5t15.5 -4t16 -1.5v0zM946 -180z" />
    <glyph glyph-name="uniE614" unicode="&#xe614;" 
d="M489 380q0 -14 -7 -25.5t-18.5 -18.5t-25.5 -7h-321q-11 0 -20.5 4t-16 11t-10.5 16.5t-4 19.5v318q0 21 14.5 36t36.5 15h321q14 0 25.5 -6.5t18.5 -18.5t7 -26v-318zM489 -89q0 -21 -15 -36t-36 -15h-321q-11 0 -20.5 4t-16 11t-10.5 16.5t-4 19.5v318q0 22 14.5 37
t36.5 15h321q14 0 25.5 -7t18.5 -19t7 -26v-318zM961 -89q0 -14 -7 -25.5t-19 -18.5t-26 -7h-321q-21 0 -36 15t-15 36v318q0 22 15 37t36 15h321q14 0 26 -7t19 -19t7 -26v-318zM886 326h-274q-31 0 -53 21.5t-22 52.5v272q0 30 22 52t53 22h274q30 0 52 -22t22 -52v-272
q0 -31 -22 -52.5t-52 -21.5zM612 685q-6 0 -9.5 -4t-3.5 -9v-272q0 -5 3.5 -9t9.5 -4h274q5 0 8.5 4t3.5 9v272q0 5 -3.5 9t-8.5 4h-274z" />
    <glyph glyph-name="uniE615" unicode="&#xe615;" horiz-adv-x="1537" 
d="M584 755q-19 0 -36.5 -7.5t-30 -20t-20 -30t-7.5 -36.5q0 -45 34 -73l301 -301l-299 -299q-36 -28 -36 -74q0 -39 27.5 -66.5t66.5 -27.5q20 0 37.5 7.5t30.5 21.5l377 376v1q23 26 23 61q0 21 -8.5 39t-23.5 32l-365 365q-13 15 -31.5 23.5t-39.5 8.5v0zM584 755z" />
    <glyph glyph-name="uniE616" unicode="&#xe616;" 
d="M384 556v-513l321 257z" />
    <glyph glyph-name="uniE617" unicode="&#xe617;" 
d="M691 242q31 21 55.5 49t42 60.5t27.5 70t10 76.5q0 85 -42 157.5t-114.5 114.5t-157.5 42q-32 0 -63 -6.5t-58.5 -18t-53 -29t-46 -38.5t-37.5 -46t-29 -52.5t-18 -58.5t-6 -62q0 -53 16.5 -101.5t46.5 -88t71 -66.5q-156 -62 -242 -205q-69 -117 -70 -252h88
q0 153 102 267t252 132l7 1q7 0 17 0.5t22 0.5t27 -0.5t27 -1.5h5q146 -21 244.5 -133.5t98.5 -263.5h90q-2 152 -88 275.5t-224 176.5zM512 266q-98 0 -166.5 68.5t-68.5 166t68.5 166t166.5 68.5t166.5 -68.5t68.5 -166t-68.5 -166t-166.5 -68.5z" />
    <glyph glyph-name="uniE618" unicode="&#xe618;" 
d="M798 631h195q10 0 17.5 -5.5t10.5 -14t1 -17.5l-94 -350q-1 -4 -3 -7t-5 -5.5t-6.5 -5t-7.5 -3.5t-7 -1h-101v59h79l78 291h-157v59zM798 97h103q19 0 27.5 -15t0 -29.5t-27.5 -14.5h-103v59zM798 -216v59q18 0 31.5 13t13.5 31.5t-13.5 32t-31.5 13.5v59
q43 0 73.5 -30.5t30.5 -73.5q0 -28 -14 -52t-38 -38t-52 -14zM379 631h419v-59h-419v59zM798 222h-419v59h419v-59zM379 97h419v-59h-419v59zM798 -8v-59q-19 0 -32 -13.5t-13 -32t13 -31.5t32 -13v-59q-43 0 -73.5 30.5t-30.5 73.5t30.5 73.5t73.5 30.5v0zM379 -216v59
q19 0 32 13t13 31.5t-13 32t-32 13.5v59q43 0 73.5 -30.5t30.5 -73.5t-30.5 -73.5t-73.5 -30.5zM33 749h136q9 0 18.5 -7.5t10.5 -16.5l19 -94h162v-59h-151l56 -291h95v-59h-83l24 -125h59v-59h-83q-6 0 -12.5 3.5t-11 9t-5.5 11.5l-122 628h-112q-20 0 -28.5 15t0 29.5
t28.5 14.5v0zM379 -8v-59q-12 0 -22.5 -6t-16.5 -16.5t-6 -22.5q0 -19 13.5 -32t31.5 -13v-59q-43 0 -73.5 30.5t-30.5 73.5t30.5 73.5t73.5 30.5z" />
    <glyph glyph-name="uniE619" unicode="&#xe619;" 
d="M860 303q-1 1 -314 357q-12 13 -34 13t-34 -13q-211 -234 -315 -358q-11 -12 -0.5 -25t34.5 -13h201v-315h240v315h188q15 0 26 5.5t13.5 14.5t-5.5 19z" />
    <glyph glyph-name="uniE61A" unicode="&#xe61a;" 
d="M824 356h-189v314h-239v-314h-201q-23 0 -33.5 -13t0.5 -25q13 -16 155.5 -178t158.5 -179q12 -13 34 -13t34 13q257 291 313 356q8 10 5.5 18.5t-13.5 14.5t-25 6z" />
    <glyph glyph-name="uniE61B" unicode="&#xe61b;" 
d="M21 519l491 -536l491 536h-982z" />
    <glyph glyph-name="uniE61C" unicode="&#xe61c;" 
d="M650 415v-318h-256v-195h514v513h-258zM650 415v216h-533v-534h277v318h256z" />
    <glyph glyph-name="uniE61D" unicode="&#xe61d;" 
d="M928 32h-19v-70q0 -12 -9 -21t-21 -9h-30q-4 0 -8 1t-7 3t-6 5t-5 6t-3 7t-1 8v70h-615v-70q0 -8 -4 -15t-11 -11t-15 -4h-30q-12 0 -21 9t-9 21v70h-20q-12 0 -20.5 8.5t-8.5 21.5v39q0 13 8.5 21.5t20.5 8.5h2q-2 5 -2 10v219q0 2 1 3q0 14 6 26.5t15 21t21.5 14
t26.5 5.5q29 0 49 -21q1 19 3.5 38t10.5 45.5t20.5 50t35.5 47t53 40.5t74.5 28t98.5 11q44 0 81.5 -7t65.5 -17.5t51 -26.5t38.5 -33t27.5 -37t19 -38t11 -37.5t5.5 -34t1.5 -28.5q10 9 22.5 14.5t26.5 5.5t26.5 -5.5t21.5 -14t15 -21t6 -26.5v-3v-219q0 -5 -1 -10h1
q13 0 21.5 -8.5t8.5 -21.5v-39q0 -9 -4 -15.5t-11 -10.5t-15 -4zM164 410q-21 0 -35.5 -14.5t-14.5 -35.5q0 -13 7 -24.5t18 -18.5t24.5 -7t25 7t18.5 18.5t7 25t-7 24.5t-18.5 18t-24.5 7zM509 639q-46 -1 -84.5 -9.5t-64 -22t-46 -31.5t-31 -38t-19 -40t-9.5 -38t-3 -33.5
t0 -24.5q18 1 35 2q34 3 108 29.5t116 26.5q37 0 83 -13.5t90.5 -28.5t72.5 -17q2 -1 4 -1h7q1 10 1.5 22.5t-2.5 37.5t-10.5 47t-26 47.5t-45.5 43.5t-72.5 29.5t-103.5 11.5zM859 410q-10 0 -19.5 -4t-16 -10.5t-10.5 -16t-4 -19.5q0 -21 14.5 -35.5t35 -14.5t35.5 14.5
t15 35.5t-15 35.5t-35 14.5zM938 91q0 6 -2 12t-6 10t-9.5 6t-11.5 2h-107l-72 100h-437l-81 -100h-98q-12 0 -20.5 -8.5t-8.5 -21.5v-10q0 -8 4 -14.5t10.5 -10.5t14.5 -4h795q12 0 20.5 8.5t8.5 20.5v10zM263 131h487l10 -20h-507zM283 181h447l10 -20h-467z" />
    <glyph glyph-name="uniE61E" unicode="&#xe61e;" 
d="M492 524q-35 1 -64 -18.5t-34 -50.5l34 -77q12 -10 49.5 -32.5t49.5 -35.5h-197h-9q-22 0 -37 -15t-15 -36q0 -33 30 -47q-12 -6 -19 -18t-7 -26q0 -9 3 -17.5t8 -14.5t12.5 -11t15.5 -7q-6 -7 -9 -15.5t-3 -17.5q0 -22 15 -37t36 -15h2q-7 -7 -11 -16t-4 -20
q0 -14 7 -25.5t18.5 -18.5t25.5 -7h101h126h1l45 45l112 14v-65h146v396h-146v-50h-36q-9 33 -36 58t-59 41.5t-64 33.5t-56.5 43.5t-30.5 61.5zM371 529l-22 -23l78 -179h-127l-58 133q-35 -4 -67.5 4.5t-59.5 30.5q-26 97 -3 187q3 1 6.5 2.5t6.5 2.5t6.5 2.5t6.5 2.5
q3 -10 7 -20.5t7.5 -20t8 -20t7.5 -19.5t7.5 -20t7.5 -20q71 -4 121 46q-5 11 -11.5 29.5t-11.5 31t-11.5 29t-11.5 30.5q2 0 11 3.5t14 5.5q37 -24 67.5 -58t55.5 -83q-2 -11 -5 -21.5t-7.5 -20t-10 -18.5t-12.5 -17zM486 -76l21 -48q11 -18 38 -22.5t51.5 7t28.5 33.5
l-13 30h-126z" />
    <glyph glyph-name="uniE61F" unicode="&#xe61f;" horiz-adv-x="1059" 
d="M545 -44q-4 0 -7 1.5t-5.5 4.5t-2.5 7l-53 307l-48 -226q-3 -13 -16 -12.5t-15 13.5l-76 643l-68 -337q-1 -5 -5.5 -8.5t-9.5 -3.5h-224q-6 0 -10.5 4.5t-4.5 10.5t4.5 10.5t10.5 4.5h211l85 418q3 13 16 12.5t15 -13.5l76 -645l46 213q1 5 5 8.5t9.5 3.5t10 -3.5
t5.5 -9.5l53 -307l160 745q1 5 5 8t9 4q4 0 7 -1.5t5.5 -4t3.5 -5.5l135 -433h170q3 0 5.5 -1t5 -3.5t3.5 -5t1 -5.5q0 -6 -4.5 -10.5t-10.5 -4.5h-181q-3 0 -5.5 0.5t-4 2t-3 3.5t-2.5 4l-121 388l-165 -765q-1 -5 -5.5 -8.5t-9.5 -3.5z" />
    <glyph glyph-name="uniE620" unicode="&#xe620;" 
d="M862 556h-126v65q0 13 -5.5 24.5t-14 20t-20 13.5t-24.5 5h-320q-26 0 -45 -18.5t-19 -44.5v-65h-127q-6 0 -12.5 -3t-11 -7.5t-7 -10.5t-2.5 -13q0 -14 9.5 -23.5t23.5 -9.5h701q14 0 24 9.5t10 23.5t-10 24t-24 10zM356 584q0 14 9.5 23.5t22.5 9.5h248q8 0 16 -4.5
t12 -12t4 -16.5v-28h-312v28zM427 44q14 0 24 10t10 24v316q0 14 -10 24t-24 10q-9 0 -16.5 -4.5t-12 -12.5t-4.5 -17v-316q0 -14 9.5 -24t23.5 -10zM597 44q9 0 16.5 4.5t12 12.5t4.5 17v316q0 14 -9.5 24t-23.5 10t-24 -10t-10 -24v-316q0 -14 10 -24t24 -10zM800 394
q0 14 -10 24t-24 10t-23.5 -10t-9.5 -24v-21v-357q0 -14 -10 -23.5t-23 -9.5h-376q-13 0 -23 9.5t-10 23.5v354v24q0 14 -9.5 24t-23.5 10t-24 -10t-10 -24v-24v-391q0 -26 18.5 -44.5t45.5 -18.5h448q27 0 45.5 18.5t18.5 44.5v394v21z" />
    <glyph glyph-name="uniE621" unicode="&#xe621;" 
d="M512 620h64v-640h-64v640zM832 492h-576q-27 0 -45.5 -18.5t-18.5 -45.5v-128q0 -27 18.5 -45.5t45.5 -18.5h576q27 0 45.5 18.5t18.5 45.5v128q0 27 -18.5 45.5t-45.5 18.5zM832 332q0 -13 -9.5 -22.5t-22.5 -9.5h-512q-13 0 -22.5 9.5t-9.5 22.5v64q0 13 9.5 22.5
t22.5 9.5h512q13 0 22.5 -9.5t9.5 -22.5v-64zM768 300h-448q-27 0 -45.5 -18.5t-18.5 -45.5v-256q0 -27 18.5 -45.5t45.5 -18.5h448q27 0 45.5 18.5t18.5 45.5v256q0 27 -18.5 45.5t-45.5 18.5zM768 12q0 -13 -9.5 -22.5t-22.5 -9.5h-384q-13 0 -22.5 9.5t-9.5 22.5v192
q0 13 9.5 22.5t22.5 9.5h384q13 0 22.5 -9.5t9.5 -22.5v-192zM704 684h-320q-27 0 -45.5 -18.5t-18.5 -45.5l32 -128q0 -27 18.5 -45.5t45.5 -18.5h256q27 0 45.5 18.5t18.5 45.5l32 128q0 27 -18.5 45.5t-45.5 18.5zM684 511q-3 -18 -14.5 -24t-27.5 -6h-194q-36 0 -44 30
l-20 86q0 23 32 23h256q15 0 23.5 -5.5t8.5 -17.5z" />
    <glyph glyph-name="uniE622" unicode="&#xe622;" 
d="M512 812q-139 0 -257 -68.5t-186.5 -186.5t-68.5 -257t68.5 -257t186.5 -186.5t257 -68.5t257 68.5t186.5 186.5t68.5 257t-68.5 257t-186.5 186.5t-257 68.5zM783 289q-1 -4 -3 -8l-2 -8l-4 -8q-1 -4 -2.5 -7.5t-3.5 -7.5t-3.5 -7.5t-3.5 -7.5q-5 -8 -9.5 -15.5t-10 -15
t-10.5 -14.5q-16 -21 -33 -38q-26 -27 -52 -48q-28 -23 -52 -39l-10 -6q-5 -3 -10 -5l-8 -6q-5 -2 -9.5 -4t-8.5 -4q-10 -5 -18 -7.5t-13 -2.5q-13 0 -32 9q-21 11 -43 26q-24 16 -49 38q-25 21 -51 46q-16 15 -35 37q-10 10 -19 21.5t-17 23.5q-17 25 -28.5 54t-13.5 62
q0 16 1.5 31.5t5.5 29.5q8 28 25 51q16 23 40 38t54 22q2 0 4 0.5t3 0.5h4q2 0 4 0.5t4 0t4 -0.5h4h3q8 -2 15.5 -3.5t14.5 -4.5t14 -6.5t13 -7.5q13 -7 26 -16q13 -11 26.5 -23.5t25.5 -26.5q7 9 14.5 17t15 15t14.5 14q20 17 45.5 31t53.5 12q20 -1 36 -6t29 -12
q26 -16 42 -39q15 -24 20.5 -54t3.5 -61t-11 -60z" />
    <glyph glyph-name="uniE623" unicode="&#xe623;" horiz-adv-x="1000" 
d="M515 753q-89 0 -170 -34.5t-139.5 -93t-93 -139.5t-34.5 -170t34.5 -169.5t93 -139t139.5 -93.5t170 -35t170 35t139.5 93.5t93 139t34.5 169.5q0 168 -111 292q-109 121 -268 142q-29 3 -58 3zM515 -56q-76 0 -145 29.5t-118.5 79.5t-79 119t-29.5 144q0 102 49.5 187.5
t135.5 135.5t187 50t187 -50t136 -135.5t50 -187t-50 -187.5t-136 -135.5t-187 -49.5zM324 212q8 1 29 4v235h-25v28h167v-28h-29v-215q18 4 35 7q1 -16 3 -27q-9 -2 -18.5 -4t-19.5 -4v-81h-28v75q-50 -10 -107 -21zM382 395h56v56h-56v-56zM382 312h56v57h-56v-57z
M438 231v55h-56v-65q9 2 18 3l20 4q9 1 18 3zM480 326h89q2 28 1 70h-79v28h104q17 28 46 82l30 -14q-24 -38 -45 -68h65v-28h-91v-38q0 -18 -1 -32h105v-29h-101q30 -92 107 -137q-14 -14 -25 -29q-69 52 -97 130q-21 -83 -94 -134q-12 15 -22 25q81 51 95 145h-87v29z
M505 490l23 16q11 -13 22 -27.5t21 -30.5l-25 -17q-16 27 -41 59z" />
    <glyph glyph-name="uniE624" unicode="&#xe624;" 
d="M151 663q120 119 288 144q51 7 101.5 4t98.5 -15t93.5 -34t86.5 -52q82 -62 133.5 -149t66.5 -188q15 -103 -12 -202.5t-85 -177.5t-146 -131.5t-191 -68.5q-88 -12 -175.5 5.5t-162.5 63.5q-13 8 -17 22.5t4 27.5t23 17t28 -4q134 -82 289 -59q118 16 210 89t135.5 181
t26.5 226q-12 87 -56.5 161.5t-114.5 127.5q-47 35 -100.5 56.5t-110 28t-114.5 -1.5q-118 -17 -210 -89.5t-135.5 -181t-26.5 -226.5q13 -94 64 -174q9 -12 5.5 -27t-15.5 -23q-9 -6 -18.5 -6t-18.5 4t-14 13q-60 93 -76 203q-7 51 -4 101.5t15 98.5t34 93.5t52 86.5
q23 30 49 56zM151 663zM293 480q-32 0 -34 34q2 31 34 33h434q29 -2 33 -33q-4 -34 -33 -34h-161v-120h156q29 -2 34 -36q-5 -34 -34 -34h-156v-147h172q31 -2 36 -31q0 -34 -32 -36h-460q-30 2 -32 36q2 29 32 31h45v242q0 34 34 38q34 -4 36 -38v-242h97v337h-201z" />
    <glyph glyph-name="uniE625" unicode="&#xe625;" 
d="M915 536q-27 2 -53.5 7t-49.5 13q-8 2 -15.5 5t-15.5 6q-34 10 -83 38l-1 1q-3 1 -6 3t-6 3.5t-6 3.5l-6 4q-5 3 -10.5 6.5t-10.5 7t-11 7.5l-1 1q-12 8 -23 16q-5 3 -14 10l-1 1q-1 1 -5 4t-6 5q-43 33 -80 72q-5 -6 -11 -11.5t-11.5 -11t-11 -10.5t-11.5 -10t-11.5 -10
t-11.5 -10t-12 -9q-2 -2 -6 -5q-3 -3 -5 -4q-11 -8 -15 -11q-5 -4 -11 -8l-12 -8l-1 -1q-18 -12 -32 -21q-12 -8 -24 -14l-1 -1q-49 -28 -84 -38q-15 -6 -30 -11q-48 -16 -103 -20q0 -9 3 -64h1q9 -134 50 -253q0 -1 1 -4.5t2 -5.5q0 -1 0.5 -2.5t1.5 -1.5
q47 -129 125.5 -218t176.5 -123q22 -8 43 -12q10 2 20.5 5t22.5 7q65 23 122.5 70.5t103 116t76.5 154.5q1 0 1.5 1.5t0.5 2.5q1 2 2 5.5t1 4.5q41 119 50 253h1q2 54 3 64zM513 -85l-1 1h-1h-1q0 -1 -1 -1q-136 43 -227.5 198.5t-100.5 369.5q168 38 327 177q0 -1 1 -2
t2 -1l1 1q2 1 2 2q159 -139 327 -177q-9 -214 -100.5 -369.5t-227.5 -198.5zM365 349q-8 8 -19 8t-19 -8l-12 -12q-8 -8 -8 -19t8 -19l138 -135v-1l13 -13q5 -5 12 -6.5t14 0t12 6.5l239 236q5 6 7 12.5t0 13.5t-7 12l-13 12q-7 8 -18.5 8t-18.5 -8l-208 -205z" />
    <glyph glyph-name="uniE626" unicode="&#xe626;" 
d="M25 322q0 6 0.5 16.5t6 42.5t14 63t27 73.5t43 79t64 74.5t87.5 65t116 45t147 21l58 -6q182 -30 291 -158q106 -124 120 -325l-5 -61q-30 -191 -157 -304q-124 -110 -325 -121q-6 0 -16.5 0.5t-42 5t-62.5 12.5t-73.5 26t-79.5 42t-75 63t-66 87t-47.5 116.5
t-22.5 148.5l248 -14l-24 -23q-1 0 -2 -1.5t-2 -6t2 -8.5l204 -214l4 -2q2 -1 8 -1.5t11 3.5l352 352q1 2 2.5 4t3.5 8.5t-4 10.5l-57 59q-1 1 -3 1.5t-7.5 1t-10.5 -2.5q-1 -2 -280 -278l-2 -1q-1 -1 -5 -1.5t-8 2.5l-130 130l-1 1q-2 0 -7 1t-9 -2l-37 -33z" />
    <glyph glyph-name="uniE627" unicode="&#xe627;" 
d="M511 -142q-90 0 -173 35t-142.5 95t-95 142.5t-35.5 173.5q0 73 22.5 141t64 122.5t96.5 96t123 64t140 22.5q61 0 119 -16t107 -45t90 -70t70 -90t45 -107t16 -118.5t-16 -118.5t-45 -106.5t-70 -90t-90 -70t-107 -44.5t-119 -16zM716 434q6 6 6 15t-6 15l-46 46
q-6 6 -15 6t-15 -6l-129 -129l-129 129q-6 6 -15 6t-15 -6l-46 -46q-6 -6 -6 -15t6 -15l129 -129l-129 -129q-6 -7 -6 -15.5t6 -15.5l46 -45q6 -6 15 -6t15 6l129 129l129 -129q4 -4 9.5 -5.5t11 0t9.5 5.5l46 45q4 5 5.5 10.5t0 11t-5.5 9.5l-129 129z" />
    <glyph glyph-name="uniE628" unicode="&#xe628;" 
d="M512 -196q-3 0 -6 0.5t-5.5 1.5t-5.5 2t-5 3l-4 4q-90 98 -180 220q-79 108 -125 194q-59 113 -59 187q0 78 31 148q29 69 84 121q26 26 57.5 46.5t66.5 35.5q72 29 151 29t152 -29q23 -10 44.5 -22.5t41.5 -27t37 -32.5q55 -52 84 -121q8 -17 13.5 -35t9.5 -37t6 -38
t2 -38q0 -25 -6.5 -54t-19.5 -62t-33 -71q-46 -86 -125 -194q-90 -122 -180 -220q-10 -11 -26 -11zM512 725q-132 0 -226 -91q-92 -90 -92 -218q0 -28 13 -67t38 -86q43 -82 119 -185q67 -92 148 -185q81 94 149 185q75 103 118 185q51 97 51 153q0 62 -24 118t-68 100
q-94 91 -226 91zM512 280q-64 0 -109 44t-45 106q0 41 20.5 76t56 55t77.5 20q64 0 109 -44t45 -107q0 -24 -8 -47t-22 -41.5t-33 -32.5t-42.5 -21.5t-48.5 -7.5zM512 509q-34 0 -58 -23t-24 -55.5t24 -56t58 -23.5q22 0 41 10.5t30 29t11 39.5q0 33 -24 56t-58 23z" />
    <glyph glyph-name="uniE629" unicode="&#xe629;" 
d="M873 524h-141l-82 82h-1v0q-20 20 -48 20h-170q-10 0 -19.5 -2.5t-17 -7.5t-13.5 -12l-81 -80h-144q-28 0 -48 -20t-20 -49v-409q0 -29 20 -49t48 -20h717q28 0 48 20t20 49v409q0 29 -20 49t-48 20zM406 581q10 11 25 11h170q5 0 9 -1t8 -3.5t8 -5.5l82 -83l10 -10h14
h141q14 0 24 -10t10 -24v-409q0 -14 -10 -24t-24 -10h-717q-14 0 -24 10t-10 24v409q0 10 4.5 17.5t12.5 12t17 4.5h144h14l10 10l42 42zM515 489q-61 0 -112 -29.5t-80.5 -80.5t-29.5 -111q0 -92 65 -157t156.5 -65t156.5 65t65 157q0 45 -17.5 86t-47 70.5t-70.5 47
t-86 17.5zM514.5 80q-77.5 0 -132.5 55t-55 132.5t55 132.5t132.5 55t132.5 -55t55 -132.5t-55 -132.5t-132.5 -55zM515 421q-64 0 -109 -45t-45 -108q0 -42 20.5 -77.5t56 -56t77 -20.5t77 20.5t56 56t20.5 77.5q0 20 -5.5 40t-15.5 37t-24 31t-31 24t-37 15.5t-40 5.5z
M515 148q-50 0 -85 35t-35 84.5t35 84.5t84.5 35t84.5 -35t35 -84q0 -14 -3 -27.5t-9 -25.5t-14 -22t-18.5 -18.5t-22.5 -14.5t-25.5 -9t-26.5 -3z" />
    <glyph glyph-name="uniE62A" unicode="&#xe62a;" 
d="M513 805q-103 0 -197 -40.5t-161.5 -108t-107.5 -161.5t-40 -197t40 -196.5t107.5 -161.5t161.5 -108t197 -40t196.5 40t161.5 108t108 161.5t40 196.5q0 83 -25.5 160t-72.5 139.5t-109 109t-139.5 72.5t-159.5 26zM598 636l-24 -478h-122l-25 478h171zM510 -70
q-39 0 -62 24.5t-23 60.5q0 25 11 44.5t30.5 30.5t44.5 11q38 0 61.5 -24t23.5 -62q0 -37 -24 -61t-62 -24zM509 -151z" />
    <glyph glyph-name="uniE62B" unicode="&#xe62b;" 
d="M448 555h-159v-64h159v64zM289 172h447v64h-447v-64zM448 395h-159v-63h159v63zM672 555h-96q-26 0 -45 -18.5t-19 -45.5v-96q0 -17 8.5 -31.5t23.5 -23t32 -8.5h96q17 0 32 8.5t23.5 23t8.5 31.5v96q0 39 -35 57q-14 7 -29 7zM672 427q0 -13 -9.5 -22.5t-22.5 -9.5h-32
q-9 0 -16 4.5t-11.5 12t-4.5 15.5v32q0 14 9.5 23t22.5 9h32q13 0 22.5 -9t9.5 -23v-32zM831 747h-638q-26 0 -48 -13t-35 -35t-13 -48v-703q0 -19 7.5 -37t20.5 -30.5t30.5 -20t37.5 -7.5h638q40 0 68 28t28 67v703q0 19 -7.5 37t-20.5 31t-30.5 20.5t-37.5 7.5zM863 -20
q0 -26 -18.5 -45t-44.5 -19h-575q-27 0 -45.5 19t-18.5 45v639q0 10 3 20t9 18t14 13.5t17.5 9t20.5 3.5h575q26 0 44.5 -19t18.5 -45v-639zM289 12h447v64h-447v-64z" />
    <glyph glyph-name="uniE62C" unicode="&#xe62c;" 
d="M542 633v-34l56 -12v46h-56zM426 633v-46l45 16v30h-45zM477 748v-111h65v56h56v55h-121zM127 388v-115h84v58h-36v57h-48zM66 273h57v-49h-57v49zM429 -25h49v-50h-49v50zM690 19l-28 -36h49zM605 -33h51v-62h115v-50h-293v49h125zM838 206l-43 -81l43 -24v105zM838 88
h121v-121zM843 388h56v-50h-56v50zM843 269h63v69h53v-184h-48v70h-68v45zM766 649h94v-96h-94v96zM719 540v159h182v-190h-150l44 -60h164v299h-304v-169zM169 649h92v-91h-92v91zM302 523v170h-183v-188h176l-42 -56h-187v299h305v-190zM169 54h98v-98h-98v98zM306 66
v-155h-183v190h156l-33 58h-180v-304h297v159zM521 524q3 1 8.5 0.5t21.5 -2t31.5 -4.5t36.5 -10.5t39.5 -18.5t38 -28.5t33.5 -39.5t24 -54.5t12 -70.5v-12q0 -9 -4 -33.5t-12 -47t-26 -50t-43 -48t-66.5 -35t-93.5 -16.5q-5 1 -13 1.5t-32 6t-45.5 14.5t-47.5 27.5
t-44.5 43t-30.5 63.5t-11 86h-62l5 -49q24 -146 137 -208q62 -34 145 -38h17q11 0 41.5 5.5t58 15t62 31.5t59 52t42 80t18.5 111q1 6 0.5 16t-5.5 38.5t-15 54.5t-32 58t-52.5 55.5t-81.5 40.5t-115 18zM521 524h-11q-8 0 -29.5 -4.5t-41.5 -12t-45.5 -25t-44.5 -40.5
t-33.5 -61t-18.5 -85h-62q1 6 2 15.5t7 38t16.5 54t32 57.5t50.5 55.5t74.5 40.5t101.5 20zM703 54l182 -183q3 -2 8 -5.5t20 -4.5t29 10l3 3q2 2 5.5 8t5 12.5t-1.5 17t-12 21.5l-181 176q-40 -43 -58 -55z" />
    <glyph glyph-name="uniE62D" unicode="&#xe62d;" 
d="M846 240q55 41 83.5 93.5t28.5 111.5t-29 113t-78 93t-117 62t-142 23q-100 0 -184.5 -39t-133.5 -106t-49 -146q0 -66 36 -125q-87 -22 -142 -80t-55 -131q0 -92 90 -157q9 -20 -1 -56.5t-29 -54.5q3 0 8 1t19 6t27 11t28.5 18t27.5 26q41 -15 114 -15q117 0 200.5 65
t83.5 156q0 12 -1.5 23t-4.5 22q17 1 32 2.5t31.5 4.5t32.5 8q24 -26 59 -44t51 -22.5t26 -5.5l71 -12l-50 52q-16 17 -26.5 50.5t-6.5 52.5zM257 70q-10 0 -18 4.5t-13 13t-5 17.5q0 15 10.5 25.5t25.5 10.5t25 -10.5t10 -25t-10 -25t-25 -10.5zM351 70q-15 0 -25 10.5
t-10 24.5q0 5 1 9.5t3.5 8.5t5.5 7.5t7 5.5t8.5 3.5t9.5 1.5q7 0 14 -3t11.5 -7.5t7.5 -11t3 -14.5q0 -14 -10.5 -24.5t-25.5 -10.5zM446 70q-10 0 -18.5 4.5t-13 13t-4.5 17.5q0 15 10.5 25.5t25.5 10.5q7 0 13.5 -3t11.5 -7.5t7.5 -11t2.5 -14.5q0 -14 -10.5 -24.5
t-24.5 -10.5zM810 163q-39 19 -62 48l-10 14l-17 -6q-44 -16 -115 -17q-35 58 -104.5 93.5t-153.5 35.5q-18 0 -36 -2q-39 54 -39 116q0 66 43 122t116 88.5t159.5 32.5t160 -32.5t116.5 -88.5t43 -122q0 -100 -99 -170l-5 -4l-3 -6q-8 -21 -6 -47.5t12 -54.5zM461 486
q-20 0 -34 -14t-14 -34q0 -13 6.5 -24.5t17.5 -18t24 -6.5t24.5 6.5t18 18t6.5 24.5q0 20 -14.5 34t-34.5 14zM589 486q-13 0 -24 -6.5t-17.5 -17.5t-6.5 -24t6.5 -24.5t17.5 -18t24 -6.5t24.5 6.5t18 18t6.5 24.5q0 20 -14.5 34t-34.5 14zM717 486q-13 0 -24 -6.5
t-17.5 -17.5t-6.5 -24q0 -20 14 -34.5t34 -14.5q10 0 19 4t15.5 10.5t10 15.5t3.5 19q0 20 -14 34t-34 14z" />
    <glyph glyph-name="uniE62E" unicode="&#xe62e;" 
d="M274 332l-2 4l-1 4v3v3v4v4l1 4l1 5l2 5l2 5l2 5l4 6v4l1 3v5l2 6l2 6l1 3l1 2l2 3l2 2v4v4v6l1 7l1 8l2 10l3 10l2 6l2 6l3 5l2 7l3 6l3 6l4 7l5 7l2 4l2 3l5 7l5 7l6 7l6 7l6 7l7 7l9 8l5 4l6 6l7 4l7 4l7 4l8 3l8 4l8 3l8 3l9 2l9 2l9 2l9 2l9 1l10 1l9 1h10h9h10
l10 -2l10 -1l10 -1l9 -2l10 -2l9 -2l10 -3l9 -3l9 -4l9 -4l8 -4l9 -5l8 -5l7 -5l3 -3l3 -2l7 -5l5 -6l6 -5l5 -6l5 -6l5 -6l3 -7l4 -6l4 -6l3 -6l6 -13l2 -6l2 -6l3 -7l1 -6l2 -5l1 -6l3 -11l2 -10l2 -9l1 -8l1 -11l1 -2l1 -2l4 -6l2 -4l2 -4l3 -4l2 -6l1 -5l2 -6l1 -6l1 -3
v-4v-3v-4v-4l-1 -4l-2 -7l-2 -4l-1 -4v-1l1 -1l1 -4l9 -12l7 -10l3 -6l4 -7l4 -8l5 -8l4 -9l5 -10l3 -7l2 -6l2 -6l3 -6l1 -7l2 -5l2 -12l2 -11l1 -11v-5v-5v-4l-1 -5l-1 -9l-2 -8l-2 -7l-1 -3l-1 -4l-2 -2l-2 -3l-1 -2l-2 -3l-2 -2l-2 -1l-2 -1l-3 -1l-1 -1h-2h-1l-2 1
l-3 1l-1 1l-2 1l-2 2l-1 2l-3 3l-4 4l-2 5l-3 4l-2 4l-4 7l-4 8l-1 1l-2 -2l-1 -2l-2 -2l-2 -8l-5 -11l-5 -13l-4 -7l-4 -6l-5 -8l-6 -8l-2 -3l-4 -4l-7 -7v-1l1 -1l4 -2l16 -8l7 -4l7 -4l6 -4l6 -5l3 -2l2 -3l2 -3l2 -3l1 -3l1 -3l1 -3v-3v-2v-2l-1 -3l-1 -2l-1 -1l-1 -2
l-3 -4l-2 -3l-2 -3l-2 -2l-4 -3l-5 -3l-6 -2l-5 -3l-7 -2l-3 -1l-3 -1l-7 -2l-8 -1l-7 -2l-9 -1l-8 -1l-9 -1h-9h-9h-9l-10 1l-9 1l-10 1l-10 1l-10 1l-10 3l-10 2l-9 3l-10 3l-10 3l-5 2l-5 1l-3 1l-2 1h-4h-4l-10 1h-5l-6 1l-4 -4l-5 -3l-7 -4l-8 -4l-5 -2l-5 -2l-11 -5
l-6 -1l-7 -2l-8 -2h-6l-6 -1h-6l-7 -1h-7h-7h-15l-17 1l-16 1l-8 1l-7 2l-8 1l-8 1l-7 3l-7 1l-6 3l-6 2l-6 3l-4 3l-5 3l-2 2l-2 2l-2 2l-1 2l-2 2l-1 2l-1 5l-1 2v2v3v2v3l1 3v1v4v3l1 3l1 3l2 4l2 2l1 2l3 3l2 2l3 2l2 1l3 1l3 2l3 2l4 1l4 1l4 1h4l5 1h5l2 1h1v1l-1 1
l-3 2l-7 6l-5 4l-5 5l-6 5l-6 7l-6 8l-3 4l-3 4l-3 5l-3 6l-3 5l-2 6l-3 6l-3 7l-2 6l-2 8h-1v1h-1l-1 -1l-1 -1v-2l-1 -1l-1 -3l-3 -6l-2 -3l-3 -3l-2 -4l-4 -4l-3 -4l-4 -3l-3 -3l-4 -3l-5 -3l-4 -1l-5 -2h-5h-1h-1l-1 2l-1 1l-2 5l-1 2l-2 4l-1 4v3l-2 8v5v5v11v12l1 6
l1 7l1 6l2 7l2 7l2 7l3 7l3 7l4 7l3 8l4 7l5 7l5 7l5 8l5 5l5 7l6 6l3 3l3 3l5 4l5 5l8 7l6 4z" />
    <glyph glyph-name="uniE62F" unicode="&#xe62f;" 
d="M867 721h-709q-16 0 -30 -4.5t-25.5 -13.5t-20 -20.5t-13.5 -25.5t-5 -29q0 -19 7.5 -36.5t20 -30t30 -20t36.5 -7.5h18v-355q0 -38 27.5 -65.5t66.5 -27.5h224v-74l-100 -100l26 -26l74 74v-80h37v80l74 -74l26 26l-100 100v74h224q39 0 66.5 27.5t27.5 65.5v355h18
q39 0 66.5 27.5t27.5 66t-27.5 66t-66.5 27.5zM811 179q0 -23 -16 -39.5t-40 -16.5h-485q-16 0 -28.5 7.5t-20 20.5t-7.5 28v355h597v-355zM867 572h-709q-10 0 -18.5 2.5t-15 8t-12 12t-8 15t-2.5 18.5q0 15 7.5 28t20 20.5t28.5 7.5h709q24 0 40 -16.5t16 -40t-16 -39.5
t-40 -16zM288 441h206v-38h-206v38zM288 347h393v-37h-393v37zM288 254h393v-37h-393v37z" />
    <glyph glyph-name="uniE630" unicode="&#xe630;" 
d="M64 574v-572h896v572h-896zM815 509l-279 -280q-10 -9 -24 -9t-24 9l-279 279zM128 506l221 -221l-221 -221v442zM213 62l177 177l77 -77q17 -17 42 -17q12 0 23 4.5t19 12.5l77 77l177 -177h-592zM897 62l-224 223l224 224v-447z" />
    <glyph glyph-name="uniE631" unicode="&#xe631;" 
d="M245 298q2 4 5 6l425 425q6 7 15.5 7t15.5 -7l68 -67q3 -4 5 -8t2 -8.5t-2 -8.5t-5 -7l-16 -16l-309 -310q-7 -6 -7 -15.5t7 -16.5l325 -325q4 -4 5.5 -10t0 -12t-5.5 -10l-68 -67q-6 -7 -15.5 -7t-15.5 7l-17 16l-341 341l-67 67q-1 1 -1 1.5t-1 0.5q-9 11 -3 24z" />
    <glyph glyph-name="uniE632" unicode="&#xe632;" 
d="M287 -45l106 -110l460 455l-467 457l-113 -112l367 -340z" />
    <glyph glyph-name="uniE633" unicode="&#xe633;" 
d="M938 -27l-214 216q-2 2 -8 7q18 28 30.5 59t19.5 65.5t7 69.5q0 98 -47.5 180t-129 130t-177.5 48q-58 0 -112 -18t-98 -51t-76.5 -77t-50.5 -98.5t-18 -113.5q0 -97 47.5 -179t129 -130t178.5 -48q104 0 193 58q4 -6 6 -8l214 -216q22 -22 53 -22q15 0 28.5 5.5
t24.5 16.5q22 22 22 53t-22 53zM419 146q-101 0 -172 71.5t-71 173t71 173t171.5 71.5t171.5 -71.5t71 -173.5q0 -49 -19 -94.5t-51.5 -78t-77.5 -52t-94 -19.5z" />
    <glyph glyph-name="uniE634" unicode="&#xe634;" 
d="M960 811q-29 -15 -59.5 -35.5t-59.5 -42.5t-58 -48h-655v0v-321l-128 -64q54 -20 128 -73v-247v-64h767v0v550q39 21 64 27q-22 52 -23.5 102t10.5 118.5t14 97.5zM191 623h525q-40 -38 -80.5 -82t-73.5 -83.5t-64 -78t-54 -70t-40 -55.5t-26 -37l-9 -13l-113 224
l-65 -33v228zM191 177q108 -90 192 -197h-192v197zM832 -20h-448q47 88 185.5 224.5t262.5 221.5v-446z" />
    <glyph glyph-name="uniE635" unicode="&#xe635;" 
d="M725 542h-42v71q0 14 -15 14h-113q-6 0 -10.5 -4t-4.5 -10v-71h-99q-6 0 -10 -4l-142 -143q-2 -2 -3.5 -4.5t-1.5 -5.5v-398q0 -6 4.5 -10t10.5 -4h426q6 0 10.5 4t4.5 10v541q0 5 -4.5 9.5t-10.5 4.5zM569 599h85v-57h-85v57zM711 1h-398v378l134 134h264v-512zM404 138
q4 -4 10 -4q6 1 10 4l212 209q10 10 0 20t-20 0l-212 -209q-2 -2 -3 -4.5t-1 -5t1 -5.5t3 -5z" />
    <glyph glyph-name="uniE636" unicode="&#xe636;" 
d="M711 58h-398q-4 0 -7.5 2t-5 5.5t-1.5 6.5v456q0 5 4 9.5t10 4.5h398q6 0 10 -4.5t4 -9.5v-456q-1 -12 -14 -14zM327 87h370v426h-370v-426zM754 -27h-484q-6 0 -10 4t-4 10v85q0 6 4 10.5t10 4.5h484q6 0 10 -4.5t4 -10.5v-85q0 -6 -4 -10t-10 -4zM284 1h456v57h-456
v-57zM754 513h-484q-2 0 -4 1l-4 2q-2 1 -3.5 3t-2 4t-0.5 5v85q0 6 4 10t10 4h484q2 0 4 -0.5t4 -2t3.5 -3t2 -4t0.5 -4.5v-85q0 -4 -2 -7.5t-5 -5.5t-7 -2zM284 542h456v57h-456v-57zM512 115q-6 0 -10 4t-4 10v342q0 4 2 7t5 5t7 2q6 0 10 -4t4 -10v-342q0 -6 -4 -10
t-10 -4zM455 115q-4 0 -7 2t-5 5t-2 7v342q0 3 1 5.5t3 4.5t4.5 3t5.5 1q6 0 10 -4t4 -10v-342q0 -4 -1.5 -7t-5 -5t-7.5 -2zM398 115q-6 0 -10 4t-4 10v342q0 4 2 7t5 5t7 2q6 0 10 -4t4 -10v-342q0 -6 -4 -10t-10 -4zM569 115q-6 0 -10 4t-4 10v342q0 2 0.5 4t2 4t3 3t4 2
t4.5 1q6 0 10 -4t4 -10v-342q-2 -12 -14 -14zM626 115q-6 0 -10 4t-4 10v342q0 2 0.5 4t2 4t3 3t3.5 2t5 1q6 0 10 -4t4 -10v-342q0 -6 -4 -10t-10 -4z" />
    <glyph glyph-name="uniE637" unicode="&#xe637;" 
d="M512 683l-83 -147q-144 -269 -144 -359q0 -94 66.5 -161t160.5 -67q62 0 114 30.5t82.5 83t30.5 114.5q0 35 -24.5 102t-54.5 129t-69 134.5t-54.5 99t-24.5 41.5zM508 -1q-49 0 -90.5 24t-65.5 66t-24 91q0 52 27 96q9 -88 73.5 -147.5t152.5 -59.5q41 0 80 15
q-44 -70 -124 -83q-15 -2 -29 -2z" />
    <glyph glyph-name="uniE638" unicode="&#xe638;" 
d="M733 100l226 391q-220 91 -446.5 92.5t-447.5 -87.5l226 -391q67 19 130 26l26 -48q-2 -8 -2 -16q0 -22 15 -37.5t36 -15.5q14 0 26 7t19 19t7 27q0 8 -2.5 16.5t-7.5 15t-11.5 11t-14 7.5t-16.5 3l-9 16q121 4 246 -36zM456 193l-149 268q-11 13 -26 11.5t-25.5 -15.5
t-2.5 -27l137 -245q-11 -1 -22.5 -3.5t-22.5 -5t-23 -4.5l-169 292q165 59 362.5 57t361.5 -65l-169 -289q-117 34 -252 26z" />
    <glyph glyph-name="uniE639" unicode="&#xe639;" 
d="M852.5 656.5q-26.5 26.5 -63.5 26.5t-64 -27q-6 -6 -11 -13t-8 -15t-5 -16t-2 -16q-12 5 -25 8l-45 -45l-77 78q-16 -15 -39 -39l57 -98l-15 -15l-77 78l-39 -39l57 -98l-15 -16l-78 78l-38 -39l57 -98l-15 -15l-78 78l-37 -38l77 -78l-97 -98l28 -28l-69 -69
q-17 2 -34 -3.5t-29 -18.5q-9 -9 -14.5 -20t-7.5 -23t0 -23.5t7.5 -22.5t14.5 -20q22 -23 54 -23t55 23q11 11 16.5 25t5.5 29v5l71 71l28 -29l98 98l77 -78l39 39l-57 98l15 15l77 -77l39 38l-57 99l15 15l78 -78l38 39l-57 98l15 15l78 -78l37 38l-77 78l45 45
q-4 13 -9 25q11 1 21.5 4t20.5 8.5t18 14.5q27 26 27 63.5t-26.5 64zM242.5 5.5q-8.5 -8.5 -20.5 -8.5t-20.5 8.5t-8.5 20.5t9 21q5 6 12.5 8t15 0t13.5 -8q8 -9 8 -21t-8.5 -20.5zM819 563q-13 -13 -30 -13t-29.5 12.5t-12.5 30t12.5 30t29.5 12.5t30 -13q4 -5 7.5 -11
t4 -12.5t0 -12.5t-4 -12.5t-7.5 -10.5z" />
    <glyph glyph-name="uniE63A" unicode="&#xe63a;" 
d="M764 -16l-22 349q-1 20 -6 36.5t-14 31t-22 26.5l-184 176q-16 12 -36 13h-47l-7 55q0 4 -1.5 7t-4.5 4.5t-6 1.5h-91q-11 0 -13 -13q-3 -31 -3 -37h66l1 -18h-80q-9 0 -17 -4.5t-12.5 -12.5t-4.5 -18v-333v-264q0 -6 2 -11t5 -9.5t7 -7.5t8.5 -5t10.5 -2h438
q14 0 24 10.5t9 24.5zM652 351l-136 50q-13 5 -18 11.5t-7 17.5l-20 97q-3 8 0.5 14t9.5 6.5t13 -6.5l171 -165q9 -9 3 -19t-16 -6z" />
    <glyph glyph-name="uniE63B" unicode="&#xe63b;" 
d="M236 187h173v87h-173v-87zM236 65h173v87h-173v-87zM957 186l-352 342v-172l34 -33l92 24l204 -198l22 22q8 7 0 15zM496 651h-347q-35 0 -60 -24.5t-25 -58.5v-536q0 -34 25 -58.5t60 -24.5h347q35 0 60 24.5t25 58.5v536q0 22 -11.5 41.5t-31 30.5t-42.5 11zM445 62
q0 -13 -9.5 -22.5t-22.5 -9.5h-180q-14 0 -23 9.5t-9 22.5v215q0 13 9 22t23 9h180q13 0 22.5 -9t9.5 -22v-215zM471 493q-20 0 -34.5 14.5t-14.5 34.5q0 8 2.5 15.5t7 13.5t10.5 10.5t13.5 6.5t15.5 2q14 0 25.5 -6.5t18 -17.5t6.5 -24q0 -10 -4 -19t-10.5 -15.5
t-15.5 -10.5t-20 -4zM662 300l176 -170q8 -9 20 -12t24 0t21 12l5 5l-186 181z" />
    <glyph glyph-name="uniE63C" unicode="&#xe63c;" 
d="M459 360q0 82 -56.5 140t-136.5 58t-136.5 -58t-56.5 -140q0 -38 11 -66.5t35 -59.5l123 -163q12 -17 18.5 -21t12 0t18.5 21l123 163q9 12 16 23t13 23t9.5 24t5 26t1.5 30zM266 228q-13 0 -25.5 3t-24 8t-22 12t-19 16t-15.5 19.5t-11.5 22t-7.5 24.5t-3 27
q0 26 10.5 50.5t27.5 42t40.5 28t49.5 10.5q53 0 91 -38.5t38 -93t-38 -93t-91 -38.5zM840 492q-30 0 -55.5 -15t-40 -41t-14.5 -57q0 -37 26 -72l70 -93q7 -10 10.5 -12t7 0.5t10.5 11.5l71 93q26 35 26 72q0 47 -32.5 80t-78.5 33zM840 314q-26 0 -44.5 19t-18.5 46
q0 13 5 25.5t13.5 21t20 13.5t24.5 5q26 0 45 -19t19 -46t-19 -46t-45 -19zM649 285l-119 -121h-135l-87 -116h270l119 153h110l-64 84h-94z" />
    <glyph glyph-name="uniE63D" unicode="&#xe63d;" 
d="M398 317q0 12 2 23q-33 28 -77 46q-8 -28 -8 -55q0 -5 1 -14q0 -1 1 -2q-2 -11 -2 -15q0 -14 2 -28t6 -27q45 18 78 46q-3 13 -3 26zM432 235q-9 -3 -18 -6.5t-18.5 -9t-19.5 -12t-19 -14.5q22 -28 52.5 -47t66.5 -25q2 13 3 26t0 29.5t-5 31.5q-24 9 -42 27zM512 683
q-75 0 -142.5 -29t-117 -78.5t-78.5 -117t-29 -142.5q0 -100 49 -184.5t133.5 -133.5t184.5 -49t184.5 49t133.5 133.5t49 184.5q0 75 -29 142.5t-78.5 117t-117 78.5t-142.5 29zM512 78q-99 0 -168.5 69.5t-69.5 168.5q0 65 31.5 120t86.5 86.5t120 31.5q99 0 168.5 -69.5
t69.5 -168.5t-69.5 -168.5t-168.5 -69.5zM598 399q39 14 65 38q-14 18 -32 32.5t-39.5 24.5t-44.5 15q-2 -27 -1.5 -44.5t3.5 -35.5q7 -3 13.5 -6t13 -6.5t12 -8t10.5 -9.5zM474 426q10 40 2 83q-73 -12 -119 -71q29 -26 72 -42l6 6q3 3 6 5.5t6 4.5t7 4l6 4q4 2 7.5 3.5
t6.5 2.5zM570 319q0 24 -17.5 41.5t-41.5 17.5t-41 -17.5t-17 -41.5t17 -41t41 -17q36 0 53 32q5 13 6 26zM631 317v-8q0 -4 -0.5 -8t-1.5 -8t-2 -7q31 -25 69 -40q8 27 8 54q0 5 -2 15l1 2l1 14q0 7 -0.5 14t-1.5 13.5t-2.5 13t-3.5 13.5q-17 -7 -34.5 -17t-33.5 -22
q1 -8 2 -15t1 -14zM550 206q-8 -44 -3 -84q35 7 65 25.5t51 46.5q-15 13 -32.5 22.5t-35.5 16.5q-9 -9 -21 -16t-24 -11z" />
    <glyph glyph-name="uniE63E" unicode="&#xe63e;" 
d="M500.5 44q35.5 0 61 25.5t25.5 62.5q0 45 -37 72v59h103v45h-103v72h103v45h-103v76h103v45h-103v86q0 32 -25.5 45.5t-51.5 0t-26 -45.5v-431q-33 -26 -33 -69q0 -37 25.5 -62.5t61 -25.5zM601 108l-2 -8l-2 -6q-1 -4 -2.5 -7t-3.5 -6t-4 -6.5t-4.5 -6t-4.5 -5.5
q27 -10 49 -10q19 0 57 13.5t58 13.5t58.5 -13.5t57.5 -13.5v52q-19 0 -57.5 13.5t-58.5 13.5t-58 -13.5t-57 -13.5q-6 0 -9 0.5t-7.5 1t-9.5 1.5zM742 29q-19 0 -57 -13t-58 -13q-9 0 -19 2t-19 4.5t-19 6t-19 6.5t-19 5t-19 2q-20 0 -59 -13t-59 -13q-18 0 -56.5 13
t-57.5 13q-17 0 -37 -7l-42 -12q-20 -7 -36 -7v-54q19 0 57 13.5t58 13.5q13 0 29 -4t29 -9t28.5 -9.5t27.5 -4.5q20 0 59 13.5t58.5 13.5t57.5 -13.5t57.5 -13.5t57.5 13.5t57.5 13.5t58.5 -13.5t58 -13.5v54q-10 0 -22.5 2.5t-24.5 6.5l-22 8q-12 4 -24.5 6.5t-23.5 2.5z
M395.5 53q18.5 0 32.5 6q-18 18 -26 46h-7q-12 0 -28 4.5t-28.5 9.5t-29 9t-30.5 4q-18 0 -56.5 -13.5t-57.5 -13.5v-53q19 0 57.5 14t56.5 14q20 0 59 -13.5t57.5 -13.5z" />
    <glyph glyph-name="uniE63F" unicode="&#xe63f;" 
d="M703 438h205q33 0 46.5 27t0 54.5t-46.5 27.5h-205q-20 0 -33.5 -11.5t-17 -27.5t0 -31.5t17 -27t33.5 -11.5zM409 614q-94 0 -173.5 -44.5t-125.5 -121t-46 -167.5q0 -89 46 -166t125.5 -121.5t173.5 -44.5q63 0 117 20q21 55 34.5 145.5t13.5 162.5q0 48 -6 105.5
t-18 117t-28 102.5q-45 12 -113 12zM908 336h-205q-20 0 -33.5 -11t-17 -27t0 -32t17 -27t33.5 -11h205q33 0 46.5 27t0 54t-46.5 27zM908 125h-205q-20 0 -33.5 -11t-17 -27t0 -32t17 -27t33.5 -11h205v108z" />
    <glyph glyph-name="uniE640" unicode="&#xe640;" 
d="M847 624l-45 55q-7 9 -15 2l-98 -81q-2 -2 -3 -4t-1.5 -4t0.5 -4l2 -4l45 -55q7 -9 15 -2l12 10l12 2q2 -8 3 -16q0 -16 -9.5 -28.5t-27.5 -26.5l-112 -93l-14 -3l-48 61l-362 -298l51 -63l-26 -10l-50 -41q-2 -3 -1 -6l52 -64q2 -3 5 -1l50 41l15 24q14 -16 23 -27.5
t23 -28.5l361 297l-48 60l5 13l112 92q29 24 44.5 47.5t14.5 56.5q0 6 -1 13t-2.5 13t-4 12.5t-5.5 12.5q4 7 6 16l21 16q8 7 1 16zM728 560q-10 0 -10 10q0 3 1.5 5t3.5 3.5t5 1.5q9 -1 10 -10q0 -10 -10 -10zM768 572q-13 0 -22 9t-9 22q0 8 4.5 15.5t11.5 11.5t15 4
t15 -4t11.5 -11.5t4.5 -15.5t-4.5 -15.5t-11.5 -11.5t-15 -4zM807 626q-4 0 -7 3t-3 7q0 11 10 11q9 -2 10 -11q0 -10 -10 -10z" />
    <glyph glyph-name="uniE641" unicode="&#xe641;" 
d="M119 300zM0 300q0 49 35 84t84 35t84 -35t35 -84t-35 -84t-84 -35t-84 35t-35 84zM512 300zM393 300q0 49 35 84t84 35t84 -35t35 -84q0 -32 -16 -59.5t-43.5 -43.5t-59.5 -16t-59.5 16t-43.5 43.5t-16 59.5zM905 300zM786 300q0 49 35 84t84 35t84 -35t35 -84t-35 -84
t-84 -35q-32 0 -59.5 16t-43.5 43.5t-16 59.5z" />
    <glyph glyph-name="uniE642" unicode="&#xe642;" 
d="M887 66q29 -31 43 -56.5t-4 -58.5q-4 -6 -11.5 -15t-15 -17t-15 -14.5t-13.5 -10.5q-25 -15 -60 -8t-62 35l-43 43l-58 57l-67 68l-74 74l-131 -131q-61 -61 -98 -100q-39 -39 -77.5 -48t-68.5 18l-7 7l-11 11l-12 11q-6 7 -7 9q-11 14 -13 29t2.5 29t14 27.5t20.5 24.5
q9 8 33 31l55 57q34 33 75.5 74t86.5 86q-50 49 -94.5 93t-79.5 79t-57.5 57t-27.5 27q-27 27 -27.5 53t17.5 52q9 11 24 24.5t21 17.5q31 21 55.5 18.5t49.5 -28.5l32 -32q23 -23 58 -57t78.5 -76.5t90.5 -88.5q39 39 76.5 76t69.5 69l58 58q26 26 44 43q24 24 53 31.5
t55 -13.5q1 -1 7 -5t11.5 -9t10.5 -9.5t7 -5.5q28 -27 27.5 -58t-27.5 -58q-18 -18 -45.5 -46t-60.5 -60.5t-70 -69.5l-78 -78q38 -37 74.5 -72t67.5 -66t56 -56.5t42 -41.5z" />
    <glyph glyph-name="uniE643" unicode="&#xe643;" 
d="M831 463l-413 -413l-206 206l413 413zM130 173l205 -206h-205v206zM130 173z" />
    <glyph glyph-name="uniE644" unicode="&#xe644;" 
d="M363 114l-224 223l-74 -74l298 -299l596 597l-74 75z" />
    <glyph glyph-name="uniE645" unicode="&#xe645;" 
d="M954 365q0 -13 1.5 -38t2.5 -44.5t2 -36.5q3 -82 -38.5 -132.5t-121.5 -61.5q-20 -3 -40.5 -3t-52.5 1.5t-41 1.5q-27 1 -47.5 2.5t-40.5 3.5q-23 4 -44.5 -1t-43.5 -18q-120 -67 -234 -127q-5 -2 -12 -4t-12.5 -2.5t-13.5 -1.5t-13 -2q2 5 6 14.5t7 16.5l7 13
q13 18 37 51.5t31 43.5q8 11 8.5 18.5t-5.5 12.5t-20 7q-10 1 -24.5 2t-28 2.5t-24.5 3.5q-68 11 -104 58t-30 116q14 164 15 216q1 54 43 100t101 53q51 6 283 26q121 10 221 18q122 8 182 -66q5 -5 9 -11.5t7.5 -13t6.5 -13.5t5 -14t3.5 -14.5t2.5 -14.5q2 -15 3.5 -31.5
t2.5 -33.5t1.5 -32t1 -33.5t1.5 -31.5v0zM585 380q0 18 -9 32.5t-24.5 23t-33.5 8.5q-18 -1 -32.5 -9.5t-23 -23.5t-8.5 -32q0 -26 19.5 -43.5t46.5 -17.5q28 0 46.5 18t18.5 44zM734 318q28 0 47.5 17.5t19.5 43.5q1 12 -4.5 24t-14.5 21t-21.5 14t-25.5 6q-10 0 -20 -3.5
t-18 -9t-14 -13.5t-9.5 -17.5t-3.5 -19.5q0 -27 18.5 -45t45.5 -18zM303 318q27 0 46.5 18t19.5 44t-19 44.5t-46 18.5q-27 1 -46.5 -17.5t-19.5 -44.5q-1 -13 4.5 -24.5t14 -20t20.5 -13.5t26 -5z" />
    <glyph glyph-name="uniE646" unicode="&#xe646;" horiz-adv-x="1000" 
d="M939 347l-396 396q-4 4 -8.5 6.5t-9.5 4t-11 1.5q-16 0 -28 -12l-397 -396q-7 -8 -10 -18.5t0 -20.5t10 -18q12 -12 29 -12h39q11 0 20 -5t14.5 -14.5t5.5 -19.5v-278q0 -33 23 -56t56 -23h119q33 0 56.5 23t23.5 56v119q0 16 11.5 28t28 12t28 -12t11.5 -28v-119
q0 -33 23 -56t56 -23h119q17 0 31.5 6t25 16.5t17 25.5t6.5 31v278q0 16 11.5 27.5t27.5 11.5h40q8 0 15.5 3t12.5 9q12 12 12 28.5t-12 28.5zM752 278v-277q0 -17 -11.5 -28.5t-27.5 -11.5h-40q-16 0 -28 11.5t-12 28.5v119q0 21 -10.5 39.5t-28.5 29t-40 10.5h-79
q-13 0 -25 -4t-22 -11.5t-17.5 -17t-11.5 -22t-4 -24.5v-119q0 -11 -5 -20.5t-14.5 -14.5t-19.5 -5h-40q-16 0 -28 11.5t-12 28.5v277q0 29 -18 51t-46 27l302 303l303 -303q-28 -5 -46.5 -27t-18.5 -51z" />
    <glyph glyph-name="uniE647" unicode="&#xe647;" 
d="M53 502h250v250h-250v-250zM387 502h250v250h-250v-250zM721 752v-250h250v250h-250zM53 168h250v250h-250v-250zM387 168h250v250h-250v-250zM721 168h250v250h-250v-250zM53 -166h250v250h-250v-250zM387 -166h250v250h-250v-250zM721 -166h250v250h-250v-250z" />
    <glyph glyph-name="uniE648" unicode="&#xe648;" 
d="M597 166h-170q-13 0 -23 6t-16 16.5t-6 22.5v178q0 18 13 31.5t32 13.5h170q19 0 32 -13.5t13 -31.5v-178q0 -12 -6 -22.5t-16 -16.5t-23 -6zM427 395q-7 0 -7 -6v-178q0 -6 7 -6h170q3 0 5 1.5t2 4.5v178q0 6 -7 6h-170zM597 495h-170q-19 0 -32 13t-13 32v178
q0 18 13 31.5t32 13.5h170q19 0 32 -13.5t13 -31.5v-178q0 -19 -13 -32t-32 -13zM427 724q-7 0 -7 -6v-178q0 -3 2 -4.5t5 -1.5h170q3 0 5 1.5t2 4.5v178q0 6 -7 6h-170zM597 -163h-170q-7 0 -12.5 2t-10.5 4.5t-9 7t-7 9t-4.5 10.5t-1.5 12v178q0 19 13 32t32 13h170
q19 0 32 -13t13 -32v-178q0 -18 -13 -31.5t-32 -13.5zM427 66q-6 -1 -7 -6v-178q0 -6 7 -6h170q3 0 5 1.5t2 4.5v178q0 6 -7 6h-170zM265 166h-171q-12 0 -22.5 6t-16.5 16.5t-6 22.5v178q0 18 13.5 31.5t31.5 13.5h171q12 0 22.5 -6t16.5 -16.5t6 -22.5v-178
q0 -18 -13.5 -31.5t-31.5 -13.5zM94 395q-6 0 -6 -6v-178q0 -6 6 -6h171q3 0 4.5 1.5t1.5 4.5v178q0 6 -6 6h-171zM265 495h-171q-18 0 -31.5 13t-13.5 32v178q0 18 13.5 31.5t31.5 13.5h171q12 0 22.5 -6t16.5 -16.5t6 -22.5v-178q0 -9 -3.5 -17.5t-9.5 -14.5t-14.5 -9.5
t-17.5 -3.5zM94 724q-6 0 -6 -6v-178q0 -3 1.5 -4.5t4.5 -1.5h171q6 0 6 6v178q0 6 -6 6h-171zM265 -163h-171q-18 0 -31.5 13.5t-13.5 31.5v178q0 19 13.5 32t31.5 13h171q9 0 17.5 -3.5t14.5 -9.5t9.5 -14.5t3.5 -17.5v-178q0 -9 -3.5 -17.5t-9.5 -14.5t-14.5 -9.5
t-17.5 -3.5zM94 66q-5 -1 -6 -6v-178q0 -6 6 -6h171q6 0 6 6v178q0 6 -6 6h-171zM930 166h-171q-18 0 -31.5 13t-13.5 32v178q0 18 13.5 31.5t31.5 13.5h171q18 0 31.5 -13.5t13.5 -31.5v-178q0 -30 -28 -41q-9 -4 -17 -4zM759 395q-3 0 -4.5 -1.5t-1.5 -4.5v-178q0 -6 6 -6
h171q3 0 4.5 1.5t1.5 4.5v178q-1 5 -6 6h-171zM930 495h-171q-18 0 -31.5 13t-13.5 32v178q0 18 13.5 31.5t31.5 13.5h171q18 0 31.5 -13.5t13.5 -31.5v-178q0 -30 -28 -41q-9 -4 -17 -4zM759 724q-3 0 -4.5 -1.5t-1.5 -4.5v-178q0 -3 1.5 -4.5t4.5 -1.5h171q6 0 6 6v178
q0 6 -6 6h-171zM930 -163h-171q-18 0 -31.5 13.5t-13.5 31.5v178q0 19 13.5 32t31.5 13h171q18 0 31.5 -13t13.5 -32v-178q0 -30 -28 -41q-9 -4 -17 -4zM759 66q-5 -1 -6 -6v-178q0 -6 6 -6h171q6 0 6 6v178q-1 5 -6 6h-171z" />
    <glyph glyph-name="uniE649" unicode="&#xe649;" 
d="M648 676h211q31 0 31 -30v-181q0 -9 6 -15.5t15 -9t20 -2.5q3 0 6 0.5t6 1.5t5.5 2.5t5 3.5t4.5 4l2 6q2 2 3 4.5t1.5 6t0.5 6.5v175q0 43 -30 73.5t-74 30.5h-211q-14 0 -24 -10t-10 -25t9 -28t23 -13zM347 -76h-182q-15 0 -23 7.5t-8 22.5v166q0 14 -13 28t-28 14
q-3 0 -6 -0.5t-6 -1.5t-5.5 -2.5t-4.5 -3.5t-3 -4l-4 -6q-1 -2 -2 -5t-1.5 -6t-0.5 -6v-173q0 -43 30.5 -73t73.5 -30h173q14 0 24 10t10 24q2 14 -4.5 26.5t-19.5 12.5zM94.5 438q14.5 0 28 14t13.5 28v167q0 15 7.5 23t22.5 8h166q4 0 9 1.5t10 4t9 6.5t7 8.5t5 10t2 10.5
q0 7 -3 13.5t-7.5 10.5t-11 6.5t-13.5 2.5h-175q-43 0 -73.5 -30.5t-30.5 -73.5v-173q0 -15 10 -26t24.5 -11zM929.5 162q-14.5 0 -28 -14t-13.5 -28v-166q0 -30 -30 -30h-210q-14 0 -23 -12.5t-9 -28.5q0 -15 10 -25t24 -10h208q43 0 73 30.5t30 73.5v175q2 14 -7.5 24.5
t-24 10.5zM972 331h-920q-15 0 -26 -11t-11 -26.5t11 -26.5t26 -11h920q10 0 18.5 5t13.5 14t5 19q0 15 -11 26t-26 11z" />
    <glyph glyph-name="uniE64A" unicode="&#xe64a;" 
d="M196 289zM102 289q0 39 27.5 66.5t66.5 27.5t66.5 -27.5t27.5 -66.5t-27.5 -66.5t-66.5 -27.5q-52 0 -80 45q-13 23 -14 49zM422 581q-11 12 -38 12q-21 0 -36.5 -15.5t-15.5 -37.5q0 -21 12 -33t25 -16q50 -33 79.5 -86t29.5 -115q0 -42 -13.5 -80.5t-38 -69
t-58.5 -52.5q-8 -3 -15 -7t-14 -15t-7 -27q0 -22 15.5 -37t36.5 -15q8 0 14.5 1t10.5 2.5t7 3.5t5 3l1 1q74 47 117.5 124t43.5 168q0 60 -20.5 116t-56.5 100t-84 75zM646 774q-17 7 -42 7q-26 0 -44.5 -18.5t-18.5 -44.5q0 -7 5.5 -15t13 -15t17.5 -14t17 -11t14 -7
q67 -68 104.5 -157t37.5 -189q0 -72 -21 -141t-58.5 -126t-89.5 -103q-18 -7 -29 -22.5t-11 -35.5q0 -26 18.5 -44.5t44.5 -18.5q12 0 23.5 2.5t16.5 4.5l5 2q106 85 166 208t60 264q0 94 -28 183t-79 162t-122 129z" />
    <glyph glyph-name="uniE64B" unicode="&#xe64b;" 
d="M511 749q-91 0 -174 -35.5t-142.5 -95.5t-95 -143t-35.5 -174t35.5 -173.5t95 -142.5t142.5 -95.5t174 -35.5t174 35.5t142.5 95.5t95 142.5t35.5 173.5q0 41 -7 80.5t-21 76t-33 70t-44 62t-54 53.5t-62.5 44.5t-69.5 33t-75.5 21t-80.5 7.5zM511 -95q-108 0 -199 53
t-144 144.5t-53 199t53 198.5t144 144t199 53q65 0 125 -20t109 -56.5t85.5 -85t56.5 -109t20 -125.5q0 -46 -10.5 -90.5t-30 -83.5t-46.5 -73.5t-61.5 -61.5t-73.5 -46.5t-83.5 -30t-90.5 -10.5zM263 401h49q11 0 18 7t7 18v24q0 11 -7 18t-18 7h-49q-11 0 -18 -7t-7 -18
v-24q0 -11 7 -18t18 -7zM412 401h49q11 0 18 7t7 18v24q0 11 -7 18t-18 7h-49q-7 0 -13 -3t-9 -9t-3 -13v-24q0 -20 18 -24q4 -1 7 -1zM561 401h49q11 0 18 7t7 18v24q0 7 -3 13t-9 9t-13 3h-49q-11 0 -18 -7t-7 -18v-24q0 -11 7 -18t18 -7zM759 475h-24q-11 0 -18 -7
t-7 -18v-248h-447q-11 0 -18 -7.5t-7 -17.5v-25q0 -6 3 -12t9 -9.5t13 -3.5h472h24q11 0 18 7.5t7 17.5v298q0 11 -7 18t-18 7zM263 277h124q10 0 17.5 7t7.5 17v25q0 7 -3.5 12.5t-9 9t-12.5 3.5h-124q-11 0 -18 -7.5t-7 -17.5v-25q0 -10 7 -17t18 -7zM461 326v-25
q0 -6 3.5 -12t9 -9t12.5 -3h124q11 0 18 7t7 17v25q0 4 -1 8t-3.5 7t-5.5 5.5t-7 3.5t-8 1h-124q-3 0 -5.5 -0.5t-4.5 -2.5l-6 -2q-2 -2 -3.5 -4t-2.5 -4.5t-2 -5.5t-1 -6z" />
    <glyph glyph-name="uniE64C" unicode="&#xe64c;" 
d="M512 -160q-185 0 -316.5 131.5t-131.5 316.5t131.5 316.5t316.5 131.5t316.5 -131.5t131.5 -316.5t-131.5 -316.5t-316.5 -131.5zM512 672q-104 0 -192.5 -51.5t-140 -140t-51.5 -192.5t51.5 -192.5t140 -140t192.5 -51.5t192.5 51.5t140 140t51.5 192.5t-51.5 192.5
t-140 140t-192.5 51.5zM557 287l138 136q10 10 10 23t-9.5 22.5t-22.5 9.5t-23 -9l-138 -137l-137 137q-6 6 -14 8t-16.5 0t-14.5 -8q-9 -9 -9 -22.5t9 -22.5l136 -137l-137 -136q-9 -9 -9.5 -22.5t9.5 -22.5t22 -10q5 0 8.5 1t7.5 3.5t7 5.5l138 136l138 -140q10 -9 23 -9
t22.5 9.5t9.5 22.5t-9 23z" />
    <glyph glyph-name="uniE64D" unicode="&#xe64d;" horiz-adv-x="1044" 
d="M891 -62q-49 -48 -108.5 -81.5t-125.5 -51t-135 -17.5q-105 0 -200 38.5t-169 111t-113.5 166t-39.5 196.5t39.5 196.5t113.5 165.5q49 48 108 81.5t125 51t136 17.5q52 0 102.5 -10t97 -29t89.5 -47t80 -64q100 -98 135.5 -230t0 -264t-135.5 -230zM836 605
q-21 21 -44 39t-48 32t-52 25t-54.5 18.5t-56.5 11.5t-59 4q-184 0 -314 -130q-63 -63 -96.5 -144t-33.5 -170t33.5 -170.5t96.5 -144.5q42 -41 92 -70.5t106.5 -44.5t115.5 -15q89 0 170 33.5t144 96.5q51 52 83 115.5t42 131.5t0 135.5t-42 131.5t-83 115zM763 252h-203
v-203q0 -6 -2 -11.5t-6 -9.5t-9.5 -6t-11.5 -2h-19q-12 0 -20.5 8.5t-8.5 20.5v203h-203q-12 0 -20.5 8.5t-8.5 20.5v19q0 12 8.5 20.5t20.5 8.5h203v203q0 12 8.5 20.5t20.5 8.5h19q12 0 20.5 -8.5t8.5 -20.5v-203h203q12 0 20.5 -8.5t8.5 -20.5v-19q0 -8 -3.5 -15
t-10.5 -10.5t-15 -3.5z" />
    <glyph glyph-name="uniE64E" unicode="&#xe64e;" horiz-adv-x="1026" 
d="M495 -31q-52 0 -99 18.5t-75 41t-51.5 52t-31 42.5t-11.5 22l63 28q3 -7 8.5 -16.5t24 -32.5t40 -40.5t57 -31.5t75.5 -14q32 1 60.5 8.5t49 18.5t38.5 26t29 27.5t20.5 26t12.5 19t4 9.5l63 -28q-25 -58 -83 -106q-82 -68 -190 -70h-4zM500 -191q-94 0 -180.5 37
t-149 99.5t-99.5 148.5t-37 180.5t37 181t99.5 149t149 99.5t181 37t180.5 -37t148.5 -99.5t99.5 -149t37 -180.5q0 -63 -16.5 -123.5t-46.5 -111.5t-73.5 -94.5t-94.5 -73.5t-111.5 -46.5t-123.5 -16.5zM500.5 672q-107.5 0 -199 -53.5t-145 -145t-53.5 -199t53.5 -199
t145 -144.5t199 -53t199 53t144.5 144.5t53 199t-53 199t-144.5 145t-199 53.5zM311 355.5q0 -22.5 16 -38t38 -15.5t38 15.5t16 38.5q0 11 -4.5 21t-11.5 17t-17 11.5t-21 4.5q-22 0 -38 -16t-16 -38.5zM581 356q0 -15 7 -27.5t19.5 -19.5t27.5 -7q22 0 37.5 15.5t15.5 38
t-15.5 38.5t-38 16t-38 -16t-15.5 -38z" />
    <glyph glyph-name="uniE64F" unicode="&#xe64f;" 
d="M265 282h247l-124 -253l-123 -241l-247 494h247zM1006 282v-423h-211v423q0 85 -29 158.5t-78 116.5t-105 43q-88 0 -150 -72.5t-62 -175.5v-354h-212v354q0 125 57 231t154.5 167.5t212.5 61.5t212.5 -71t154.5 -193t57 -266h-1z" />
    <glyph glyph-name="uniE650" unicode="&#xe650;" 
d="M700 365zM789 365q0 37 26.5 63t63 26t62.5 -26t26 -63h-178zM486 89q11 -11 35 -11q14 0 25.5 6.5t18 18t6.5 24.5q0 20 -11.5 32t-23.5 15q-48 31 -76 81.5t-28 109.5t28.5 109.5t76.5 81.5q34 11 34 47q0 21 -14.5 35.5t-35.5 14.5q-7 0 -13 -1.5t-10 -3t-7 -3
t-4 -2.5l-1 -1q-35 -22 -63 -51.5t-48 -65t-31 -76.5t-11 -84q0 -134 95 -230q27 -27 58 -46zM273 -95q16 -6 40 -6q25 0 42.5 17.5t17.5 42.5q0 10 -13.5 23.5t-26 21t-24.5 14.5q-63 64 -99 148.5t-36 178.5q0 103 43 194.5t118 156.5q17 7 27 22t10 33q0 25 -17 42.5
t-42 17.5q-12 0 -23 -2t-15 -4l-5 -2q-100 -81 -157.5 -198t-57.5 -250q0 -134 58 -251.5t159 -198.5h1zM968 367q0 -37 -26 -63t-63 -26t-63 26t-26 63h179h-1z" />
    <glyph glyph-name="uniE651" unicode="&#xe651;" 
d="M512 -35q-68 0 -130.5 11.5t-107.5 31.5t-72 47t-27 57q-9 2 -17.5 4.5t-16.5 5t-17 5.5v-5q0 -2 -0.5 -4.5t-0.5 -5.5q0 -54 52 -100.5t141.5 -73.5t195.5 -27t195.5 27t141.5 73.5t52 100.5q0 10 -2 19q-25 -9 -50 -16v-3q0 -30 -27 -57t-72 -47t-107 -31.5t-131 -11.5
zM512 153q-91 0 -168.5 19.5t-123 53.5t-45.5 74q-14 3 -26.5 7t-24.5 8q0 -4 -0.5 -7.5t-0.5 -7.5q0 -55 52 -101t141.5 -73t195.5 -27t195.5 27t141.5 73t52 101q0 10 -2 19q-23 -8 -50 -16v-3q0 -40 -45 -74t-123 -53.5t-169 -19.5zM175 488q0 30 27 57t72 47t107 31.5
t131 11.5q46 0 89.5 -5.5t80.5 -15t68 -23t53 -29.5t34 -35t12 -39t-12 -39.5t-34 -35.5t-53 -29.5t-68 -23t-80.5 -15t-89.5 -5.5q-91 0 -169 20t-123 54t-45 74zM123 488q0 -55 52 -101.5t141.5 -73t195.5 -26.5t195.5 26.5t141.5 73t52 101.5q0 40 -31 77.5t-83 64.5
t-124 43t-151 16q-106 0 -195.5 -27t-141.5 -73.5t-52 -100.5z" />
    <glyph glyph-name="uniE652" unicode="&#xe652;" 
d="M825 485q-8 0 -14.5 -3.5t-10 -10t-3.5 -14.5v-144q-2 -113 -84 -192.5t-196 -79.5q-56 0 -107.5 21.5t-89 58t-60 87t-22.5 106.5v143q0 6 -2.5 11t-6 9t-9 6t-10.5 2q-12 0 -20 -8t-8 -20v-24v-47v-52v-21q1 -128 90 -222t217 -105v-1v-75h-127q-7 0 -13.5 -4
t-10.5 -10.5t-4 -13.5q0 -12 8.5 -20t19.5 -8h310q6 0 11 2t9 6t6 9t2 11q0 7 -3.5 13.5t-10 10.5t-14.5 4h-127v75v1q63 6 119 33.5t97 70.5t65.5 101t25.5 121q0 1 0.5 67t0.5 78q0 21 -20 27q-5 1 -8 1zM517 124q52 0 96.5 26t70.5 70t26 96v241q0 79 -56.5 135
t-136.5 56t-136.5 -56t-56.5 -135v-241q0 -52 26 -96t70.5 -70t96.5 -26zM380 557q0 56 40 95.5t97 39.5t97 -39.5t40 -95.5v-241q0 -56 -40 -96t-97 -40q-37 0 -68.5 18.5t-50 49.5t-18.5 68v241z" />
    <glyph glyph-name="uniE653" unicode="&#xe653;" 
d="M650 610q0 57 -40.5 97.5t-97.5 40.5t-97.5 -40.5t-40.5 -97.5v-174h276v174zM512 80q57 0 97.5 40.5t40.5 97.5v180h-276v-180q0 -12 2 -24.5t6.5 -23.5t10.5 -21.5t13.5 -19.5t16.5 -16.5t19.5 -13.5t21.5 -10.5t23 -6.5t25 -2zM742 197v201h-59v-201q-7 -41 -31 -74
t-61 -52.5t-79 -19.5q-64 0 -112.5 42t-58.5 104v201h-59v-201q11 -76 66 -131t132 -65v-84h-157v-65h380v65h-159v84q51 7 93.5 34t69.5 69.5t35 92.5z" />
    <glyph glyph-name="uniE654" unicode="&#xe654;" 
d="M765 531q5 0 11.5 -0.5t24.5 -5.5t31.5 -14.5t24.5 -30.5t11 -50q-1 0 0.5 -9.5t-4 -25t-14 -29.5t-31 -25t-54.5 -11q-4 -1 -10.5 -0.5t-24 6t-30.5 15t-24 30.5t-10 49q0 4 0.5 10t5.5 22.5t14.5 29.5t30 25t48.5 14zM968 687q3 -1 6.5 -1.5t13 -3.5t16.5 -8t13 -15.5
t6 -23.5v-713q-1 -2 -1.5 -5.5t-3.5 -12.5t-8.5 -16t-16 -12.5t-25.5 -5.5v817zM1 -78q1 -2 1 -6t3.5 -12.5t8.5 -15.5t15.5 -12.5t24.5 -5.5h914v150h-99l-203 207l-153 -154l-209 257l-205 -308l-45 -1l-2 613h-51v-712zM968 687h-914l-22 -5q-30 -13 -31 -47h967v52z" />
    <glyph glyph-name="uniE655" unicode="&#xe655;" horiz-adv-x="1026" 
d="M316 475q5 7 9 18.5t8 16.5t19 9.5t43 4.5q16 0 27.5 -1.5t18 -4t10.5 -7.5t5.5 -9t4.5 -12.5t5 -14.5h225q24 0 31 0.5t24 -1.5t20 -1.5t13.5 -4.5t11 -5.5t5.5 -11t4.5 -13.5t1.5 -20t1.5 -24t-0.5 -31q0 -181 -5 -224q-1 -16 -4.5 -25.5t-11 -16t-19.5 -8.5
q-24 -3 -70 -5t-99 -2t-111.5 0.5t-107.5 2t-86 2.5q-17 1 -30 5t-22 12t-13 19q0 2 -0.5 7.5t-1 12.5t-0.5 13q-2 82 2 249q0 49 15 60q14 8 77 10zM18 168q27 -100 87 -179t137.5 -126t170.5 -65t183 -3.5t177 65.5t151 135q44 59 71 132.5t30 145.5q3 104 -30.5 197.5
t-93 162t-141 114t-171 60t-187 -7t-184.5 -80.5q-132 -92 -187 -244.5t-13 -306.5zM516 354q29 6 51.5 -4.5t32 -30.5t9.5 -41.5t-16.5 -41t-45.5 -26.5q-21 -2 -38.5 5t-28 20.5t-14.5 30.5t-0.5 34t16.5 31.5t34 22.5zM523 401q-55 -8 -83.5 -49.5t-20.5 -89.5
q5 -25 17 -44t28.5 -31t35 -18t38.5 -6q49 0 87 37t32 96q-3 29 -19.5 54t-47 40t-67.5 11zM706 181h-42v-25h42v-44h25v44h45v25h-45v45h-25v-45z" />
    <glyph glyph-name="uniE656" unicode="&#xe656;" 
d="M733 -137q10 10 10 25t-10 26l-372 369l370 374q11 10 11 25t-11 25q-5 6 -12 8.5t-13.5 2.5t-13.5 -3t-12 -8l-394 -397v-2h-1h-1v-1q-10 -10 -10 -25q0 -7 2.5 -13.5t8.5 -11.5l397 -394q11 -11 25.5 -11t25.5 11v0zM733 -137z" />
    <glyph glyph-name="uniE657" unicode="&#xe657;" 
d="M638 384h-256q-4 0 -8.5 1t-8 3t-6.5 5t-5 6.5t-3 8t-1 8.5q0 13 9.5 22.5t22.5 9.5h256q13 0 22.5 -9.5t9.5 -22.5q0 -4 -1.5 -8.5t-3.5 -8t-5 -6.5t-6.5 -5t-7.5 -3t-8 -1zM577 256h-195q-9 0 -16.5 4.5t-11.5 11.5t-4 16t4 16t11.5 11.5t16.5 4.5h195q6 0 12 -2.5
t10.5 -7t7 -10t2.5 -12.5q0 -13 -9.5 -22.5t-22.5 -9.5zM960 352q0 104 -60 192.5t-163.5 140t-224.5 51.5t-224.5 -51.5t-163.5 -140t-60 -192.5q0 -87 45.5 -166t127.5 -135q7 -4 15.5 -5t16.5 3t13 11q1 3 2.5 6t2 6t0.5 6t-0.5 6t-1.5 6t-3 6l-4 4q-2 3 -5 4
q-69 47 -107 112t-38 136q0 87 51.5 160.5t140 116.5t192.5 43q78 0 149 -25.5t122.5 -68.5t82 -102t30.5 -124q0 -87 -51.5 -160.5t-140 -116.5t-192.5 -43q-1 0 -3 -0.5t-3 -0.5q-11 2 -21 -3.5t-14 -16.5q-9 -26 -94 -74q17 58 3 79q-11 16 -30 16q-13 0 -22.5 -9.5
t-9.5 -22.5q0 -9 4 -16q-5 -33 -33 -100q-8 -20 8 -35q9 -9 22 -9q7 0 13 3q144 64 188 125q51 1 100.5 11.5t93 30t81.5 45.5t68 59t52 70.5t33.5 80.5t11.5 87zM960 352z" />
    <glyph glyph-name="uniE658" unicode="&#xe658;" 
d="M1010 397l-431 341q-28 22 -66.5 22t-66.5 -22l-431 -341q-11 -9 -12.5 -23t7 -25t22.5 -12.5t25 6.5l13 11v-412q0 -42 36.5 -72t79.5 -30h681q40 0 64 28t24 74v411l13 -10q4 -3 9.5 -5t11.5 -2q17 0 27 13q4 5 6 12t1 13t-4 12t-9 11zM479 -92v189q0 14 34 14
q13 0 23.5 -4t10.5 -10v-189h-68zM887 -58q0 -17 -5 -25.5t-15 -8.5h-252v1v188q0 33 -26.5 57.5t-75.5 24.5q-34 0 -58 -12.5t-34 -30.5t-10 -39v-188v-1h-225q-11 0 -22 5t-18.5 13t-7.5 16v466l350 276q10 8 24.5 8t23.5 -8l351 -277v-465zM887 -58z" />
    <glyph glyph-name="uniE659" unicode="&#xe659;" 
d="M512 758q-106 0 -180.5 -42.5t-111.5 -120.5t-37 -187q0 -44 18 -99t47 -107.5t64.5 -106t70.5 -98.5t64 -80t47 -55l18 -20q13 14 35.5 39t79 97t100 138.5t79 149t35.5 142.5q0 109 -37 187t-111.5 120.5t-180.5 42.5zM512 -79q-30 35 -74.5 91t-119 187.5t-74.5 212.5
q0 140 66.5 213.5t201.5 73.5q39 0 72.5 -6.5t61 -19t50 -30.5t39 -42t27.5 -53.5t16 -63.5t5 -74q0 -142 -201 -403q-40 -52 -70 -86zM512 617q-81 0 -138.5 -57.5t-57.5 -138.5t57.5 -138t138.5 -57t138.5 57t57.5 138q0 27 -7 52.5t-20 47t-31 39.5t-39.5 30.5
t-46.5 19.5t-52 7zM512 275q-40 0 -73.5 19.5t-53 53.5t-19.5 73q0 61 43 103.5t103 42.5t103 -42.5t43 -103.5q0 -24 -7.5 -46t-21 -40t-31.5 -31.5t-40 -21t-46 -7.5z" />
    <glyph glyph-name="uniE65A" unicode="&#xe65a;" 
d="M946 604q17 -41 17.5 -85.5t-16.5 -86.5t-50 -75q-54 -54 -130 -63.5t-140 27.5l-62 -68l44 -45l27 27q10 10 24.5 10t24.5 -10l215 -218q10 -10 10 -24.5t-10 -24.5l-98 -98q-10 -10 -24.5 -10t-24.5 10l-216 217q-10 11 -10 25t10 25l24 24l-42 42l-298 -325
q-31 -31 -72 -17q-15 6 -26 17l-25 24q-20 21 -20 49.5t20 49.5l340 284l-226 226h-71l-82 132l66 67l136 -83v-70l228 -229l67 56q-19 26 -30.5 56.5t-13 62t4.5 62t21.5 59.5t39.5 53q49 49 116.5 62t128.5 -13l-146 -144l123 -123zM180 -34q-10 10 -24.5 10t-25 -10
t-10.5 -24.5t10.5 -24.5t25 -10t24.5 10t10 24.5t-10 24.5z" />
    <glyph glyph-name="uniE65B" unicode="&#xe65b;" 
d="M537.5 279q-27.5 0 -47 -19.5t-19.5 -46.5q0 -20 10.5 -36t27.5 -24v-73q0 -8 4 -14.5t10.5 -10.5t13.5 -4q6 0 11.5 2.5t9 6t6 9t2.5 11.5v73q8 4 15 10t12 14t8 17t3 19q0 27 -19.5 46.5t-47 19.5zM813 413h-570q-24 0 -41 -17t-17 -40v-381q0 -24 17 -40.5t41 -16.5
h570q24 0 40.5 16.5t16.5 40.5v381q0 23 -16.5 40t-40.5 17zM813 13q0 -16 -3 -24t-10.5 -11t-24.5 -3h-494q-17 0 -24.5 3t-10.5 11t-3 24v304q0 17 3 24.5t10.5 11t24.5 3.5h494q24 0 31 -7.5t7 -31.5v-304zM258 441q12 0 20.5 8.5t8.5 20.5q20 82 87 136t154 54
q67 0 124 -33.5t90 -90.5q7 -17 26 -17q5 0 9 1.5t7.5 4.5t6.5 6.5t4.5 7.5t1.5 9q0 9 -6 17q-40 69 -110 110.5t-153 41.5q-110 0 -193.5 -67.5t-104.5 -172.5v-1l-1 -1v-2v-1v-2q0 -12 8.5 -20.5t20.5 -8.5z" />
    <glyph glyph-name="uniE65C" unicode="&#xe65c;" 
d="M383 736l446 -446l-446 -450l-62 62l385 388l-385 384z" />
    <glyph glyph-name="uniE65D" unicode="&#xe65d;" 
d="M512 -84h-85l-235 -128v235q-90 63 -141 150.5t-51 190.5q0 91 40.5 174t109 143t163.5 95.5t199 35.5q70 0 136 -16t122.5 -45t103.5 -70.5t80 -90.5t51.5 -107t18.5 -119q0 -91 -40.5 -174t-109 -143t-163.5 -95.5t-199 -35.5zM512 748q-73 0 -141.5 -19.5t-123.5 -55
t-96.5 -82.5t-64 -105.5t-22.5 -121.5q0 -96 52 -181.5t140 -138.5v-142l171 78h85q73 0 141.5 19.5t123.5 55t96.5 82.5t64 105.5t22.5 121.5q0 104 -60 192.5t-163 140t-225 51.5zM768 300q-6 0 -11.5 1t-10.5 3t-10 5t-9 6.5t-8 7.5t-6.5 9t-4.5 10t-3 10.5t-1 11.5
q0 13 5 25t13.5 20.5t20.5 13.5t25 5q10 0 20 -3t18 -9t14 -14t9 -18t3 -20q0 -17 -8.5 -32t-23.5 -23.5t-32 -8.5zM512 300q-13 0 -25 5t-20.5 13.5t-13.5 20.5t-5 25q0 27 18.5 45.5t45.5 18.5q6 0 11.5 -1t11 -3t10 -4.5t8.5 -6.5l8 -8q4 -4 6.5 -8.5t4.5 -10t3 -11
t1 -11.5q0 -10 -3 -20t-9 -18t-14 -14t-18 -9t-20 -3zM256 300q-27 0 -45.5 19t-18.5 45q0 9 2.5 17t6.5 15t10 13t13 10t15 6.5t17 2.5q10 0 20 -3t18 -9t14 -14t9 -18t3 -20q0 -27 -18.5 -45.5t-45.5 -18.5z" />
    <glyph glyph-name="uniE65E" unicode="&#xe65e;" horiz-adv-x="1035" 
d="M753 -224q-45 0 -100.5 23.5t-110.5 57.5q-125 77 -244 193l-24 24q-116 119 -193 244q-81 131 -81 211q0 78 72 175q14 18 30 36t45 39t52 21q30 0 72 -44q31 -32 67 -83q34 -49 57 -92q16 -31 21.5 -48.5t5.5 -27.5q0 -16 -8.5 -30.5t-25.5 -25.5q-15 -10 -49 -25
q-9 -4 -14 -6t-12.5 -6t-10.5 -7q6 -24 42 -77q43 -63 93 -115q52 -50 115 -93q19 -14 36 -23.5t26 -13.5t15 -5q6 7 19 37q5 11 7.5 17.5t7.5 15.5t10 16q23 34 56 34q6 0 14 -1.5t24 -8t37.5 -17.5t45 -26t47.5 -31q51 -36 83 -67q15 -15 25 -27.5t14.5 -23.5t4.5 -21
q0 -23 -21 -52t-39 -45t-36 -30q-97 -72 -175 -72v0zM341 93q114 -111 232 -185q117 -72 180 -72q57 0 135 59q34 24 56 50q16 18 19 29q-5 11 -32 36t-74 58q-43 30 -81 50q-33 17 -47 19q-4 -2 -9 -12q-3 -4 -6 -10.5t-5 -11t-6 -12.5q-4 -10 -6.5 -15.5t-6.5 -14
t-8 -13.5q-20 -31 -49 -31h-1q-9 0 -17.5 1.5t-35.5 14.5t-61 37q-22 14 -43.5 31t-42 34.5t-37.5 34.5l-1 1q-54 55 -100 123q-13 18 -22.5 34t-15 27.5t-9 20t-4.5 15.5t-1.5 10t-0.5 7q-1 29 30 50q5 3 10 5.5t11.5 5.5t10.5 5t12 5q25 11 34 17q6 3 9 6l3 3
q-2 14 -19 47q-10 18 -22.5 39t-27.5 42q-33 47 -58 74t-36 32q-11 -3 -29 -19q-26 -22 -50 -56q-59 -78 -59 -135q0 -63 72 -180q74 -118 185 -232zM700 310q-5 0 -9.5 2t-8 6.5t-3.5 9.5q-3 15 -10 29t-17 25.5t-23.5 20.5t-29 14.5t-32 6.5t-33.5 -2q-4 -1 -8.5 0t-8 3.5
t-5.5 6.5t-3 8t0 8.5t3.5 8t6 6t8.5 3.5q33 6 65.5 -1t60.5 -25q57 -38 69 -104q1 -6 -1 -11.5t-6.5 -9.5t-10.5 -5h-4zM834 367q-3 0 -6 1t-6 2.5t-5 3.5t-3 5l-2 6q-16 93 -97 146q-82 54 -181 36q-5 -1 -11 1t-9.5 6.5t-4.5 10.5q-2 9 3.5 16.5t14.5 9.5q56 10 111 -1
t101 -42q24 -15 43 -34.5t34 -41.5t25 -47t15 -52q1 -9 -4 -16.5t-14 -9.5h-2h-2zM1012 383q-8 0 -14.5 5.5t-7.5 13.5q-13 76 -56 140.5t-109 108.5q-67 44 -146.5 60t-160.5 1q-9 -1 -16.5 4t-9.5 14q0 4 0.5 7.5t2 6.5t4 5.5t5.5 4t6 2.5q61 10 119.5 6t114.5 -23
t105 -51q74 -50 122 -121.5t63 -157.5q1 -9 -4 -16.5t-14 -8.5q-2 -1 -4 -1z" />
    <glyph glyph-name="uniE65F" unicode="&#xe65f;" horiz-adv-x="1026" 
d="M509 481q-29 0 -56 -9t-49 -25.5t-38.5 -38t-25.5 -49t-9 -56.5q0 -74 52 -126t126 -52t126.5 52t52.5 126q0 29 -9.5 56.5t-26 49t-38 38t-49 25.5t-56.5 9zM509 175q-53 0 -90.5 37.5t-37.5 90.5t37.5 91t90.5 38t91 -38t38 -91q0 -66 -55 -105q-34 -23 -74 -23z
M899 434h-22l-2 7l-1 1v1q-2 6 -4.5 11t-4.5 10l-3 6l15 16q35 35 35 84q0 24 -9 46t-26 39l-16 16q-35 35 -84.5 35t-84.5 -35l-15 -15l-7 3q-5 2 -10.5 4.5t-12.5 4.5l-7 3v22q0 49 -35 84t-84 35h-24q-24 0 -46 -9.5t-38 -25.5t-25.5 -38t-9.5 -46v-22l-7 -3
q-13 -4 -23 -9l-6 -3l-16 15q-35 35 -84.5 35t-84.5 -35l-16 -16q-35 -35 -35 -84.5t35 -84.5l15 -16l-3 -6q-1 -3 -3 -6l-2 -8q-2 -3 -4 -7v-2h-1l-2 -7h-22q-49 0 -84 -35t-35 -84v-24q0 -49 35 -84t84 -35h22l2 -7h1v-2q5 -12 9 -21l3 -6l-15 -16q-35 -35 -35 -84t35 -84
l16 -17q35 -35 84.5 -35t84.5 35l16 15l6 -3q10 -4 23 -9l7 -3v-21q0 -50 35 -85t84 -35h24q49 0 84 35t35 85v21l7 3q13 5 23 9l7 3l15 -15q17 -17 38.5 -26t45.5 -9q50 0 85 35l16 17q17 16 26 38t9 46q0 49 -35 84l-15 16l3 6q4 9 9 21q0 1 1 2l2 7h22q49 0 84 35t35 84
v24q0 49 -35 84t-84 35zM968 291q0 -3 -0.5 -6.5t-0.5 -6.5q-1 -2 -1 -5q-1 0 -1 -1v-1l-2 -6l-3 -6l-1 -1v-1l-2 -3q-1 -2 -2.5 -4t-3.5 -4v0l-2 -2q-3 -4 -8 -7q0 -1 -1 -1q-15 -12 -35 -14h-2h-4h-59q-6 -24 -16 -48t-24 -47l42 -42q8 -8 13 -18t6 -21q0 -1 1 -1v-12v-2
q0 -3 -0.5 -5.5t-0.5 -4.5q-1 -1 -1 -3q-1 -1 -1 -2v-1q-1 -4 -2 -6q-1 -1 -1.5 -2.5t-1.5 -3.5l-1 -1v-1v0l-2 -4q-4 -5 -9 -10l-17 -17q-1 -1 -3 -2.5t-3.5 -3t-3.5 -2.5v-1q-1 0 -2 -0.5t-2 -1.5h-1l-1 -1l-6 -3q-2 -1 -6 -2h-1h-2q-2 -1 -3 -1q-2 -1 -4.5 -1.5
t-5.5 -0.5v0h-2h-3q-4 0 -8 1h-1q-24 3 -40 19l-42 42q-23 -14 -46.5 -24t-48.5 -16v-58v-5v-2q-2 -19 -14 -35v-1q-4 -5 -8 -8q0 -1 -0.5 -1t-1.5 -1q-2 -2 -4 -3.5t-4 -2.5l-3 -2h-1l-1 -1l-6 -3l-6 -2h-1h-1q-3 -1 -5 -2q-3 0 -6.5 -0.5t-6.5 -0.5h-24q-7 0 -13 1l-4 2
h-1h-1h-1q-4 1 -6 2l-6 3l-1 1h-1q-2 1 -3 2q-2 1 -4 2.5t-4 3.5v0l-2 2q-4 3 -7 8h-1v1q-12 16 -14 35v2v5v58q-25 6 -48.5 16t-46.5 24l-42 -42q-8 -8 -18 -13t-21 -6h-1q-2 -1 -3 -1h-4h-2h-3h-2v0q-3 0 -5.5 0.5t-4.5 1.5q-1 0 -3 1h-2h-1q-4 1 -6 2l-6 3l-1 1h-1
q-2 2 -4 3t-3.5 2.5t-3.5 3t-3 2.5l-17 17q-5 5 -9 10q0 2 -2 4v1l-1 1l-3 6q0 1 -0.5 2.5t-1.5 3.5v2l-1 1q0 2 -1 3q0 2 -0.5 4.5t-0.5 5.5v2q0 5 1 11v1v1q3 23 19 39l42 42q-28 46 -40 95h-59h-4h-1h-1q-20 2 -35 14q-1 0 -1 1q-5 3 -8 7l-2 2v0q-4 4 -6 8q-1 1 -2 3v1
l-1 1l-3 6q0 2 -1 3l-1 3v1v1v0l-2 5q-1 6 -1 13v24q0 7 1 13q1 2 2 5v1v1q1 4 2 6l3 6l1 1v1l2 3q2 3 6 8v0l2 2q3 4 8 8h1q15 12 35 14h2h4h59q12 49 40 95l-42 42q-16 16 -19 39v2q-1 6 -1 11v2q1 6 1 10q1 1 1 4q1 0 1 1v1l2 6l3 6l1 1v1q2 2 2 4q2 3 5 5l4 5l17 17l5 4
q2 3 5 5q1 0 2 1h2l1 1l1 1l6 3q1 0 2.5 0.5t3.5 1.5h1h1l1 1l3 1h3q2 0 3.5 0.5t3.5 0.5h2h2h5h4l2 -1q23 -3 39 -19l42 -42q23 14 46.5 24t48.5 16v59v2v2v1v1q1 6 2.5 12.5t4.5 12t7 10.5v1h1q1 2 3 4.5t4 3.5l2 2q1 1 2.5 2t2.5 2t3 2q1 0 2 1l1 1h1l1 1l6 3
q1 0 2.5 0.5t3.5 1.5h1h1v1l5 1l13 1h24q3 0 6.5 -0.5t6.5 -0.5q2 -1 2.5 -1t2.5 -1h1h1l6 -2l6 -3l1 -1h1q2 -1 3 -2q4 -2 8 -6l2 -2l8 -8v-1q12 -15 14 -35v-2v-4v-59q49 -12 95 -40l42 42q8 8 18 13t21 6q1 0 2 1h9h2h2h1q5 -1 9 -1q1 -1 4 -1q0 -1 1 -1h1l6 -2l6 -3
l1 -1h1l4 -2q1 -1 2.5 -2t2.5 -3l3 -2l2 -2l17 -17q5 -4 9 -10l2 -4v-1l1 -1l3 -6l2 -6v-1q0 -1 1 -2q0 -2 1 -3q0 -4 1 -10v-2v-4v-3v-4l-1 -2q0 -4 -1.5 -8.5t-3 -8.5t-3.5 -8t-5 -7.5t-6 -6.5l-42 -42q14 -23 24 -46.5t16 -48.5h59h4h1h1q20 -2 35 -14h1q5 -4 8 -8l2 -2
v0q4 -5 6 -8q1 -1 1 -1.5t1 -1.5v-1l1 -1l3 -6l2 -6v-1q0 -1 1 -1l1 -5l1 -13v-24z" />
    <glyph glyph-name="uniE660" unicode="&#xe660;" 
d="M460 205h234q10 0 18 7t8 17.5t-8 17.5t-18 7h-234q-11 0 -18.5 -7t-7.5 -17q0 -3 0.5 -6t2 -5.5t3 -4.5t4.5 -4l4 -2q3 -2 6 -2.5t6 -0.5zM382 -12h288v1q7 1 11.5 6t4.5 12.5t-4.5 13t-11.5 6.5h-300q-20 0 -36 22t-16 44v415v1v2q0 9 -6 14.5t-14 5.5q-2 0 -4.5 -0.5
t-4.5 -1.5t-3.5 -2t-3 -3t-2.5 -4t-1.5 -4t-0.5 -5v-418q0 -27 14.5 -51.5t38.5 -39t51 -14.5zM694 722l-312 1q-38 0 -68 -25.5t-34 -62.5v-2q-1 -1 -1 -2v0q0 -8 6 -14t14 -6t14 6t6 14q5 20 19.5 36t31.5 16h284v-118q0 -41 25 -66.5t67 -25.5h90v-380q0 -31 -19 -48.5
t-43 -17.5q-5 0 -9.5 -3t-7 -7t-2.5 -9.5t2.5 -9.5t7 -7t9.5 -3v0h1h2h1q39 3 68 34.5t29 70.5v419zM746 512q-20 0 -36 28t-16 51v79l130 -158h-78zM460 329h234q3 0 6 0.5t5.5 1.5t4.5 3l4 4q2 2 3 4l2 6q1 2 1 5q0 10 -8 17.5t-18 7.5h-234q-5 0 -10 -2t-8.5 -5.5
t-5.5 -8t-2 -9.5q0 -10 7.5 -17t18.5 -7zM717 -29q-14 0 -17 -15h-1q-6 -12 -12 -20t-13.5 -11t-11 -3.5t-13 0t-12.5 0.5h-385q-20 0 -42 22.5t-22 43.5v502q0 18 18 38.5t38 24.5v1q3 0 6 1t5 3l4 4q2 2 3 5t1 6q0 17 -16 20h-3v1l-1 -1v1h-3l-1 -1q-38 -4 -64.5 -34.5
t-26.5 -68.5v-502q0 -41 31.5 -73t72.5 -32h390q73 0 90 61q3 5 3 9t-2.5 8.5t-6.5 7t-9 2.5z" />
    <glyph glyph-name="uniE661" unicode="&#xe661;" 
d="M437 41h-193q-27 2 -41.5 22.5t-17.5 45.5q3 25 17.5 41t41.5 18h193v63l-193 1q-27 2 -41.5 19t-17.5 43q3 25 17.5 41t41.5 18h144l-134 236q-10 12 -19 30.5t-8 40.5q5 28 20 45.5t56 22.5q24 -2 43 -16.5t31 -31.5l152 -278l167 280q12 17 31 30t43 16q15 -1 27.5 -4
t22 -10t16 -20t9.5 -34q0 -29 -20 -55l-155 -252h147q26 -2 41 -18t17 -41q-2 -26 -17.5 -44t-41.5 -20l-191 -1v-61h192q26 -2 41 -20t17 -43q-2 -26 -17 -43.5t-41 -19.5l-192 1v-106q-4 -85 -93 -85q-44 0 -68.5 21t-26.5 64v104z" />
    <glyph glyph-name="uniE662" unicode="&#xe662;" 
d="M230 626h565q52 -11 60 -63v-524q-8 -58 -66 -65h-554q-53 7 -65 60v532q10 50 60 60zM204 504v-70v-281q0 -7 -1 -32t-1 -41.5t2.5 -34.5t7.5 -25q4 -4 9.5 -6.5t14.5 -3.5t15 -1h19h19h372q8 0 28.5 -0.5t37.5 -1t35.5 0t32 4t18.5 8.5q7 9 8.5 31t0 61t-1.5 42v114
v132v109v13v12v10v11q0 4 -1 9t-2 8t-3 6t-5 5q-6 6 -24.5 8.5t-35.5 2.5t-42.5 -1t-33.5 -1h-365q-5 0 -23 0.5t-30.5 0t-20.5 -1.5q-7 -2 -12 -4.5t-8.5 -6t-5.5 -9t-3 -10t-1.5 -12.5t-0.5 -13.5t0.5 -15.5t0.5 -16zM511 396q45 26 131.5 79.5t130.5 78.5q3 -5 8.5 -15
t7.5 -13q-48 -31 -141.5 -88t-134.5 -83q-38 24 -278 170q3 4 6 9l6 12q3 5 7 8q22 -14 114.5 -70.5t142.5 -87.5zM511 257q6 5 11.5 10t13 13t11.5 12q1 1 9.5 10.5t15 15.5t11.5 6q4 1 9 -2t8.5 -7.5t3.5 -9.5q0 -8 -11 -18.5t-23.5 -21t-15.5 -16.5q5 0 22.5 0.5t27 -2
t11.5 -10.5q2 -10 -3 -15.5t-15 -6.5t-22.5 -1t-24 1t-20.5 0v-51q14 -4 34.5 -1t36.5 -1t14 -20q-2 -11 -17 -13t-37 -0.5t-30 0.5q-3 -14 -1 -28.5t-1 -26.5t-14 -14q-8 0 -12.5 3.5t-6 10.5t-1.5 16t0.5 19t0.5 18q-11 2 -25.5 2t-28 -1t-23.5 3t-10 15q0 13 14 16t38 1
t33 0q2 2 1.5 24t0.5 27q-10 2 -24.5 1.5t-28 -1.5t-23.5 2.5t-11 13.5q0 7 3 11.5t10.5 6t13.5 2t17.5 0t16.5 -0.5q-2 3 -4.5 6t-6.5 7t-5.5 6t-7.5 8q-2 1 -9 7t-11 11t-5 10q0 7 6.5 14t13.5 6q5 0 11.5 -5.5t14.5 -15t10 -11.5q34 -34 34 -35z" />
    <glyph glyph-name="uniE663" unicode="&#xe663;" horiz-adv-x="1000" 
d="M0 738v-813h62v-63h126v63h624v-63h126v63h62v813h-1000zM625 50h-500v562h500v-562zM875 50h-187v562h187v-562zM562 550h-374v-62h374v62zM812 550h-62v-62h62v62zM812 425h-62v-63h62v63zM812 175h-62v-63h62v63z" />
    <glyph glyph-name="uniE664" unicode="&#xe664;" 
d="M385 621h114v12q0 7 -11.5 9.5t-46.5 2.5q-13 0 -23.5 -0.5t-16.5 -1.5t-10 -2t-5 -1l-1 -1v-3v-6v-9zM723 54q-10 0 -10 10q0 4 3 7t7 3h13v14v18h-15q-10 0 -10 10q0 4 3 7t7 3h15v33l-3 -1h-10q-10 0 -10 10q0 4 3 7t7 3h10h1q1 0 2 -1v32q-3 65 -6 82q-2 12 -5 67
t-5 76q-4 48 -26 131q-2 7 -2.5 16.5t0 15.5t-0.5 11q0 3 -3 7.5t-11.5 9.5t-20.5 8q-27 8 -95 -29q-2 -1 -5 -3q-39 -21 -48 -21q-4 0 -6 2.5t-3 5.5v2v18h-115v-18v-18q0 -8 -2 -16.5t-4.5 -15t-4.5 -11t-4 -7.5l-2 -2q-47 -92 -63 -119q-7 -13 -10.5 -23.5t-4.5 -15.5v-5
v-24h1h1h7q10 0 10 -10q0 -4 -3 -6.5t-7 -2.5h-7h-1h-1v-28h9q10 0 10 -10q0 -4 -3 -7t-7 -3h-9v-36h9q10 0 10 -10q0 -4 -3 -7t-7 -3h-9v-32h9q10 0 10 -10q0 -4 -3 -7t-7 -3h-9v-32h9q10 0 10 -10q0 -4 -3 -7t-7 -3h-9v-32h9q10 0 10 -10q0 -4 -3 -7t-7 -3h-9v-7
q1 -23 39 -29h190h178q11 0 18.5 2t11.5 5t6.5 6t3 4.5t0.5 2.5v2v6v8h-13zM667 364q-14 -22 -29 -13q-3 2 -8 10t-9.5 19t-9.5 23.5t-8 25.5q-25 81 -26 90.5t6 19.5l25 26q0 1 0.5 1.5t2.5 2t4 2.5t4.5 1.5t4.5 0.5t4.5 -2.5t4.5 -6.5q6 -10 11.5 -25t11 -36.5t7.5 -41.5
q1 -9 3 -25.5t3 -25t1.5 -19.5t-0.5 -17.5t-3 -9.5z" />
    <glyph glyph-name="uniE665" unicode="&#xe665;" 
d="M785 52q40 -24 65 21q18 32 7 107q-69 -28 -87 -60q-25 -44 15 -68zM900 248q0 -2 1 -5t2.5 -13.5t3 -20.5t2.5 -25t1.5 -29t0 -30.5t-2.5 -31t-6.5 -28.5t-10.5 -25q-18 -33 -42 -46.5t-45.5 -11t-44.5 16.5q-82 48 -32 137q35 61 161 108zM258 380q-17 -7 -32.5 -15
t-32 -20.5t-23.5 -24.5q-25 -44 15 -68t66 21q18 32 7 107zM159 199q-82 48 -31 137q17 31 61 59t76 40.5t35 12.5q1 -2 1.5 -5t2 -13.5t3 -20.5t3 -25t2 -29t0 -30.5t-3 -31t-6.5 -28.5t-10 -25q-51 -89 -133 -41zM491 680q-69 -28 -88 -60q-25 -44 15 -68q21 -12 37 -7
t29 28q18 32 7 107zM392 499q-13 8 -23 17.5t-17 22t-9 27t2.5 32.5t15.5 38q17 31 61 58.5t76 40.5t36 13q0 -2 0.5 -5t2.5 -13.5t3 -20.5l2 -25q2 -15 2.5 -29t0 -30.5t-2.5 -31t-6.5 -28.5t-10.5 -25q-19 -33 -42.5 -46.5t-45 -11t-45.5 16.5zM460 111q6 -21 -5 -31.5
t-27 -0.5q-15 10 -12.5 32.5t18.5 39.5q8 8 15.5 14t11.5 8t15 5.5t14 5.5q-2 -3 -7 -8.5t-7.5 -8.5t-7 -8.5t-6.5 -10t-3.5 -10.5t-1 -12.5t2.5 -14.5zM549 271q-51 -21 -98 -50t-66 -62q-47 -84 28.5 -128.5t122.5 39.5q34 60 13 201zM583 35q-17 -30 -37 -49.5
t-39.5 -27.5t-41 -8.5t-41 6t-40.5 18.5q-25 15 -42.5 34t-27 44t-4 57.5t26.5 69.5q17 29 49.5 57t67 47t68 34.5t53.5 22.5t21 7q2 -8 4.5 -23t7.5 -56.5t5 -78.5t-7 -81t-23 -73zM759 511q4 -14 0 -24t-12.5 -12t-19.5 4q-10 6 -12 19t3.5 27.5t15.5 25.5q7 8 15 14
t12 7.5t15 5.5t14 6q-2 -3 -7 -8t-7.5 -8t-7 -8.5t-6.5 -10t-3.5 -11t-1.5 -13t2 -14.5zM849 671q-51 -21 -98 -50t-66 -62q-12 -22 -16.5 -40.5t-1 -34t15 -29t30.5 -24.5q75 -45 123 39q10 17 15 43t5 55t-1.5 54t-5.5 49zM883 435q-15 -25 -31 -43t-32.5 -27.5t-33.5 -13
t-34.5 -1.5t-34 8t-33.5 16q-26 15 -43 34t-26.5 44t-4 57.5t26.5 69.5q16 29 49 57t67.5 47t68 34.5t53.5 22.5t21 7q2 -8 4.5 -23t7 -56.5t5 -79t-6.5 -81t-23 -72.5z" />
    <glyph glyph-name="uniE666" unicode="&#xe666;" 
d="M195 299h-185v-61h185v61zM256 514h-246v-61h246v61zM10 -131h461v61h-461v-61zM10 729v-61h983v61h-983zM896 299q0 116 -84 198t-203 82t-203 -82t-84 -198.5t84 -198.5t203 -82h17q47 0 68.5 5.5t53.5 29.5l184 -184l61 61l-171 181q74 80 74 188zM609 84
q-62 0 -115 29t-84 78.5t-31 107.5q0 89 67.5 152t163 63t163 -63t67.5 -152t-67.5 -152t-163.5 -63zM256 115h-246v-62h246v62z" />
    <glyph glyph-name="uniE667" unicode="&#xe667;" 
d="M512 -148q-91 0 -174 35.5t-143 95.5t-95.5 143t-35.5 174t35.5 174t95.5 143t143 95.5t174 35.5q73 0 141.5 -22.5t123.5 -64t96.5 -96.5t64 -123.5t22.5 -141.5q0 -91 -35.5 -174t-95.5 -143t-143 -95.5t-174 -35.5zM512 664q-59 0 -115 -18.5t-100.5 -52t-78 -78
t-52 -100.5t-18.5 -115q0 -99 48.5 -183t132.5 -132.5t183 -48.5q74 0 141.5 29t116 77.5t77.5 116t29 141.5q0 99 -48.5 183t-132.5 132.5t-183 48.5zM414 216l-126 308l322 -126l126 -322zM512 342q-11 0 -21 -5.5t-15.5 -15.5t-5.5 -21q0 -17 12.5 -29.5t29.5 -12.5
q11 0 21 5.5t15.5 15.5t5.5 21q0 17 -12.5 29.5t-29.5 12.5z" />
    <glyph glyph-name="uniE668" unicode="&#xe668;" 
d="M1023 494v315l-398 -67v-61h-244q-24 0 -52 13t-51.5 31.5t-43 37.5t-30.5 32l-11 13l-64 -64q5 -4 14 -11t36 -25.5t52 -33.5q-71 -45 -102 -80q-66 -75 -64 -222v-40v-98v-114v-98v-41h64v392q-2 122 48 179q12 14 35.5 32t43.5 31t40 24q49 -22 81 -22h109v-27
l-190 -104q-18 -7 -29 -23t-11 -36v-572q0 -27 19 -47t45 -20h387q17 0 32 9.5t23.5 25t8.5 32.5v572q0 37 -33 55v1l-190 105v29h77v-56zM707 46h-133v190h133v-190zM707 300h-197v-318h197v-127h-387v512v60v-1l195 108l192 -107v-127zM689 688l270 45v-163l-270 45v73z
" />
    <glyph glyph-name="uniE669" unicode="&#xe669;" 
d="M597 -144v1l-1 1q-10 9 -10 25v55v380q0 9 3 16t9 14q56 55 250 250q2 1 3 2.5t2.5 3t2.5 3.5t2.5 3.5t2 3.5t1.5 4l2 4q4 14 -1 28t-16.5 23t-26.5 10h-5h-606q-37 0 -48 -32q-8 -24 8 -45q4 -6 11 -12q150 -151 238 -239q12 -12 12 -29v-259q0 -21 -16 -30
q-15 -7 -29 1t-16 24v7v244q0 5 -3 8l-235 235q-11 11 -18.5 23t-11 26t-3.5 29q0 25 10.5 47.5t28.5 37.5t42 21q14 4 30 4h606q64 0 97 -55q5 -9 8.5 -19t5 -20.5t0.5 -21t-3.5 -20.5t-7 -20t-10.5 -18q-7 -9 -15 -16q-31 -31 -60 -60.5t-59.5 -59.5t-60.5 -60.5
t-60 -59.5q-1 -2 -2 -3t-1 -3v-3v-414q0 -24 -12 -35h-9h-10h-9h-10z" />
    <glyph glyph-name="uniE66A" unicode="&#xe66a;" 
d="M975 317q0 73 -22.5 141.5t-64 123.5t-96.5 96.5t-123.5 64t-141.5 22.5q-91 0 -174 -35.5t-143 -95.5t-95 -143t-35 -174t35 -174t95 -143t143 -95.5t174 -35.5q149 0 270 92q5 6 5 13q0 8 -6 13.5t-14 5.5q-3 0 -5.5 -0.5t-5 -2t-3.5 -3.5h-1q-107 -79 -239 -79
q-110 0 -203.5 54.5t-148 148t-54.5 203.5t54.5 203.5t148 147.5t203.5 54q66 0 127.5 -20.5t111.5 -58t87.5 -87t58 -111.5t20.5 -128q0 -103 -46 -189v-1q-1 -4 -1 -6q0 -8 6 -13.5t14 -5.5q2 0 4 1h4q2 1 3.5 2t3 2.5t2.5 3.5t1 4q51 98 51 205zM654 503q49 0 86 -31.5
t43 -78.5q3 -22 0 -41.5t-12 -37t-25 -33.5q-30 -31 -80.5 -81t-75.5 -75.5t-51 -51.5q-2 -1 -4 -1.5t-3.5 -0.5t-3.5 0.5t-3 1.5q-134 133 -201 200q-36 36 -44 79q-7 40 10.5 76.5t52.5 56.5q15 9 32 13.5t34 4.5q51 0 90 -36q14 -13 30 -13q13 0 24 6q5 4 17 12
q6 4 9.5 6.5t9 5.5t9.5 6q27 13 56 13zM654 545q-13 0 -25.5 -2t-25 -6t-24.5 -9q-8 -4 -15.5 -9t-18 -12.5t-15.5 -10.5v0l-2 2q-51 47 -119 47q-46 0 -87 -23q-47 -27 -70 -75.5t-14 -101.5q4 -20 11.5 -38t18.5 -34t26 -31q105 -104 201 -199q7 -7 16.5 -11t20.5 -4
q21 0 37 15q135 135 207 208q62 62 50 148q-6 42 -31.5 76t-62.5 52t-78 18v0z" />
    <glyph glyph-name="uniE66B" unicode="&#xe66b;" 
d="M633 677q23 -5 38.5 -25t17.5 -50q0 -9 1 -28.5t1 -41t-1.5 -39t-5.5 -21.5q-6 -7 -11.5 -6.5t-5.5 -5.5q0 -3 -1.5 -21.5t-9.5 -51.5q-4 -17 -11.5 -31t-15.5 -25q-11 -13 -21 -23q-1 -13 -1 -25v-22q0 -11 1 -17q1 -13 6.5 -18t20.5 -9q5 -2 18.5 -6t31.5 -10.5t38 -14
t38.5 -14t33 -12t21.5 -8.5q21 -11 27.5 -22t11.5 -29q2 -9 5.5 -33.5t7.5 -51t7 -50t4 -30.5q1 -13 -5 -22t-26 -14q-18 -4 -51 -9t-77 -9t-97 -6.5t-111 -2.5t-111.5 2t-98 5.5t-79 8t-53.5 10.5q-4 1 -10 4t-12 7.5t-9 11t-2 14.5t5.5 33t11 53.5t11.5 53.5t7 31
q4 13 11.5 26t26.5 28q9 7 33.5 15t51.5 15.5t50.5 12.5t30.5 7q15 3 27 7.5t12 12.5v60q-12 9 -22 20q-9 9 -18 22t-17 27q-14 28 -18 51t-5 27t-7.5 6.5t-10.5 11.5q-8 17 -7.5 36.5t2.5 55.5q3 36 12 68.5t38 60.5q16 13 41.5 22t52 13t50.5 4t37 -3q13 -4 21 -9t13 -9
t8 -7.5t6 -5.5q5 -4 13 -2.5t29 -2.5zM539 116l27 -107l45 121l-43 31zM465 163l-41 -33l46 -121l25 108zM829 563q15 -2 23.5 -14t9.5 -30q0 -5 1 -17t1 -24t-1 -23t-3 -13q-4 -4 -7.5 -3.5t-3.5 -3.5q0 -2 -0.5 -12.5t-5.5 -31.5q-2 -10 -6 -18t-10 -15q-5 -7 -12 -13
q-1 -8 -1 -15v-24q1 -7 4 -10t12 -5q5 -1 20 -6t33 -12t33.5 -12.5t21.5 -8.5q12 -6 16.5 -13t7.5 -18q1 -5 3 -19.5t4 -30.5t4 -29.5t2 -17.5q1 -8 -2.5 -14t-16.5 -8q-10 -2 -26.5 -5t-42.5 -5q-2 12 -6 24q-3 10 -7.5 21t-10.5 20q-11 15 -23.5 24t-24.5 15.5t-24.5 10
t-24.5 7.5q-52 18 -84 25.5t-36 12.5q-2 3 -2.5 7t-0.5 9t1 12q14 4 21.5 5t11.5 2q8 2 15 4.5t7 7.5v36l-2 1l-4 2q-2 1 -4 5q6 13 12 32q6 16 11.5 39.5t9.5 56.5q3 26 4 46.5t1 35.5v32q12 2 26 2t22 -2q18 -5 21.5 -10.5t7.5 -8.5q4 -2 8.5 -1.5t16.5 -1.5zM777 235
l7 -27l19 -6l14 37l-21 18zM724 254l-17 -17l1 -5l31 -9l4 11zM269 586q-16 2 -32 1q-15 -1 -32 -5t-31 -15q-12 -8 -19.5 -19t-11 -23t-4.5 -22t-1 -17q-1 -13 -2 -23.5t1 -19t3 -11.5t4 -5t5.5 -2.5t4.5 -13.5q1 -14 6.5 -26.5t11.5 -21.5q3 -5 7.5 -9.5t9 -9.5t10.5 -10
v-12v-18q-1 -6 -5 -10t-14 -6q-5 -1 -16.5 -4t-25.5 -7l-28 -8q-14 -4 -22 -7q-30 -14 -36 -49q-4 -16 -9 -41l-7 -35q-2 -10 0.5 -21.5t16.5 -14.5q7 -2 18 -3t21 -3q11 -2 24 -3q2 12 6 25q3 11 8.5 22t13.5 22q9 9 20.5 17.5t22.5 17.5q13 9 27 17l-10 26l22 17l24 -27
l12 3q2 0 6 2q2 1 4 1l20 23l17 -14q5 1 9.5 2t9.5 2l10 2q11 2 19 4t9 10q0 4 0.5 6.5t0.5 4.5v3q-10 4 -18 7l-14 4q-7 2 -11 4q-9 3 -10 8.5t-1 14.5v11q0 5 1 10q0 5 1 12q-8 12 -16 27q-7 12 -13.5 28t-11.5 33q-5 24 -7 50.5t-1 48.5q0 25 3 50z" />
    <glyph glyph-name="uniE66C" unicode="&#xe66c;" 
d="M204 526q-36 0 -61 22.5t-25 54.5q0 33 25 55.5t61 22.5t61 -22.5t25 -55.5q0 -32 -25 -54.5t-61 -22.5zM132 495q29 -21 46 -34t29.5 -23.5t25 -23t31.5 -30.5q30 -30 29.5 -71t-18.5 -96q-6 -17 -9.5 -28.5t-7.5 -21.5t-10 -23t-16.5 -33.5t-25.5 -52t-37 -81.5
l-131 81q42 38 77 74q15 15 30 31.5t28 32.5t24 30.5t16 25.5q11 23 7.5 41.5t-12.5 31.5q-11 14 -30 24l-99 63zM708 447h279v-63h-696v63h279v35h-214v64h214v36h-253v62h253v45h138v-45h246v-62h-246v-36h207v-64h-207v-35zM485 327q109 17 185 23.5t127.5 4.5t81 -13
t44.5 -29.5t18.5 -43.5t3.5 -56v-140q0 -76 -62 -99t-184 0l19 62q26 -8 43.5 -7.5t28 7t15 19t6.5 27.5h-326v-115h-139v384h139v-24zM809 245q-4 16 -19 26t-50 12.5t-96.5 -3.5t-158.5 -21v-14h324zM485 145h327v37h-327v-37z" />
    <glyph glyph-name="uniE66D" unicode="&#xe66d;" 
d="M493 589q0 29 -12.5 55t-35 45t-51.5 28q-2 1 -5 -4.5t-5.5 -15t-5 -21t-5 -22.5t-4.5 -20.5t-3 -15.5l-1 -6v119q0 4 -2 8t-6 6t-8 2h-23q-7 0 -11.5 -4.5t-4.5 -11.5v-119q0 3 -1 8t-4 19t-6 27l-6 24q-3 13 -6.5 20.5t-5.5 6.5q-44 -14 -71.5 -49t-27.5 -79
q0 -2 -1.5 -3.5t-3.5 -2.5t-4.5 -1.5t-5.5 -1.5l-6 -4q-3 -1 -6 -5t-5 -9t-3 -13.5t-1 -18.5h383q0 22 -5.5 34.5t-12 14.5t-12.5 3.5t-6 6.5zM380 -18v-52h117v52q0 45 32 77q3 3 6 5.5t6 4.5v129q-11 -3 -21 -7.5t-20 -9.5t-19 -11.5t-18 -13.5t-16 -14q-67 -67 -67 -160z
M961 -70v52q0 18 -3 36.5t-8.5 35t-14 32t-18.5 29.5t-22 27q-44 43 -104 59v50h-40v31h-52v49h129q11 0 18.5 7.5t7.5 18.5q0 3 -0.5 5.5t-1.5 5t-2 4.5l-4 4q-1 2 -3.5 3t-4.5 2t-5 1.5t-5 0.5h-129v24h-56v-24h-125q-7 0 -13 -3.5t-9.5 -9.5t-3.5 -13q0 -11 8 -18.5
t18 -7.5h125v-49h-43v-31h-44v-211h235v35q11 -7 21 -16q32 -32 32 -77v-52h117zM481 265q-28 13 -55 22q-5 1 -9 5t-9 18t4 36q32 33 47.5 66.5t15.5 89.5h-274q0 -39 8.5 -69t20.5 -48t33 -39q9 -20 3.5 -33.5t-11 -18.5t-10.5 -7q-72 -26 -125.5 -63.5t-53.5 -74.5v-20
q0 -25 22 -43.5t61.5 -28t83 -13.5t95.5 -4q0 1 -0.5 4.5t-0.5 5.5q1 45 20 86.5t53.5 74t80.5 54.5z" />
    <glyph glyph-name="uniE66E" unicode="&#xe66e;" 
d="M500 62zM1006 298.5q0 -100.5 -39.5 -192t-105.5 -158t-158 -105.5t-192.5 -39t-192 39t-158 105.5t-105.5 158t-39 192t39 192.5t105.5 158t158 105.5t192 39.5t192.5 -39.5t158 -105.5t105.5 -158t39.5 -192.5zM786 491l-93 -92l-77 78l92 91q-26 11 -53.5 11
t-54.5 -10.5t-47 -31.5q-38 -38 -41.5 -91t27.5 -94l-42 -36l-144 145l-1 45l-86 52l-42 -42l52 -84h45l143 -143l-215 -180q-13 -13 -13 -31t13 -31l16 -16q13 -13 31 -13t31 13l189 206l26 -27l-15 -15q-3 -3 -4.5 -7t-1.5 -8.5t1.5 -8.5t4.5 -7l137 -138q6 -6 15 -6t16 6
l62 62q2 2 3 4t2 4.5t1.5 5t0 5t-1.5 4.5t-2 4.5t-3 3.5l-136 138q-7 7 -16 7t-16 -7l-16 -17l-29 29l40 43q40 -24 88.5 -18t82.5 41q31 31 39.5 74t-8.5 82zM301 87q3 -3 4.5 -7t1.5 -8.5t-1.5 -8.5t-4.5 -7q-7 -7 -16 -7t-15 7q-4 4 -5.5 9.5t0 11.5t5.5 10q6 6 15 6
t16 -6zM301 87z" />
    <glyph glyph-name="uniE66F" unicode="&#xe66f;" 
d="M500 62zM1009 299q0 -101 -39 -192.5t-105.5 -157.5t-158 -105.5t-192.5 -39.5q-80 0 -155.5 25t-136.5 71t-107 106.5t-71 136.5t-25 156q0 101 39.5 192.5t105.5 158t158 105.5t192 39q68 0 132 -17.5t118.5 -49.5t100 -78t77.5 -100t49.5 -118.5t17.5 -131.5zM706 46
l-17 266q-1 15 -4.5 27.5t-10.5 23.5t-17 20l-140 134q-11 9 -27 9h-35l-6 42q-1 11 -9 11h-69q-9 0 -10 -11q-2 -23 -3 -28h51v-14h-60q-11 0 -18.5 -7.5t-7.5 -18.5v-253v-201q0 -11 7 -18.5t18 -7.5h333q10 0 17.5 7.5t7.5 18.5zM621 325l-104 39q-10 3 -13.5 8t-5.5 13
l-15 74q-3 9 3.5 14t14.5 -3l129 -126q7 -7 3 -14.5t-12 -4.5zM621 325z" />
    <glyph glyph-name="uniE670" unicode="&#xe670;" 
d="M495 60zM496 61zM513 792q-100 0 -192 -39t-158 -105.5t-105.5 -158t-39.5 -192.5t39.5 -192.5t105.5 -158t158 -105.5t192.5 -39t192 39t158 105.5t105.5 158t39 192.5q0 58 -13 113.5t-37 104t-58 91.5t-77 77t-92 58.5t-104.5 37.5t-113.5 13zM266 419q-17 61 -2 117
q2 1 5 2t5.5 2.5t5.5 1.5q4 -10 9 -23.5t10 -27.5t9 -24q45 -2 76 29q-28 74 -29 75q2 1 7.5 3t8.5 3q48 -32 77 -88q-4 -27 -22 -48l-14 -15l49 -112h-80l-36 83q-22 -2 -42.5 3t-36.5 19zM511 32l-13 30h79l8 -19q-4 -22 -33.5 -26t-40.5 15zM770 71h-91v42l-71 -10
l-28 -28h-1h-79h-63q-13 0 -22.5 9.5t-9.5 22.5q0 7 2.5 12.5t6.5 10.5h-1q-4 0 -8 1t-7.5 3t-6.5 5t-5 6.5t-3.5 8t-1.5 8.5q0 12 8 21l-6 2q-3 1 -5 3t-4.5 4t-4 4.5t-2.5 5.5t-1.5 6t-0.5 6q0 19 16 28q-19 9 -19 29q0 14 9.5 23.5t22.5 9.5h6h124q-8 7 -31.5 21.5
t-30.5 20.5l-22 48q4 19 22 31.5t40 12.5q4 -27 26.5 -46.5t47.5 -30t49 -29.5t31 -44h23v32h91v-249z" />
    <glyph glyph-name="uniE671" unicode="&#xe671;" 
d="M495 60zM496 61zM320 269q-24 0 -41.5 -17.5t-17.5 -41.5t17.5 -41.5t41.5 -17.5t41 17.5t17 41.5t-17 41.5t-41 17.5zM514 793q-80 0 -155.5 -25t-136.5 -71t-107 -106.5t-71 -136.5t-25 -156q0 -101 39.5 -192.5t105.5 -158t158 -105.5t192.5 -39t192 39t158 105.5
t105.5 158t39 192.5t-39 192.5t-105.5 157.5t-158 105.5t-192.5 39.5zM826 327q0 -8 -6 -13t-15 -5l-37 -1h-4l4 -20q16 0 27.5 -11.5t11.5 -27.5v-97q0 -16 -11.5 -27.5t-27.5 -11.5h-1v-37q0 -6 -2.5 -11t-7 -8t-9.5 -3h-59q-8 0 -13.5 6.5t-5.5 15.5v37h-311v-37
q0 -5 -1.5 -9t-4 -6.5t-6.5 -4.5t-8 -2h-58q-5 0 -9.5 3t-7.5 8t-3 11v37q-16 0 -27.5 11.5t-11.5 27.5v97q0 16 11.5 27.5t27.5 11.5l3 20h-3l-38 1q-9 0 -14.5 5t-5.5 13v78q0 4 1.5 8t4 6.5t6 3.5t7.5 1h39v-77h10l29 175q107 19 214 19q22 0 45.5 -1t44 -2.5t40 -3.5
t34.5 -4.5t26.5 -4t17.5 -2.5l7 -1l29 -175h10v77h39q5 0 9.5 -2t7 -6.5t2.5 -10.5v-78zM690 483q-2 0 -5.5 1t-14 3t-22 3.5t-28 4t-33 4t-36 2.5t-37.5 1q-87 0 -175 -19l-39 -175h429zM709 269q-16 0 -29.5 -8t-21.5 -21.5t-8 -29.5q0 -24 17.5 -41.5t41.5 -17.5t41 17.5
t17 41.5t-17 41.5t-41 17.5z" />
    <glyph glyph-name="uniE672" unicode="&#xe672;" 
d="M495 60zM496 61zM666 318q-29 36 -44 36h-70h-12h-17h-16h-16h-17h-12h-46h-24h-1q-14 0 -42 -36q-29 -36 -28 -53q0 -3 2 -3h184h73h65h47q10 0 -8 31zM665 201q-10 -1 -16 -5t-8 -7t-2 -5v-26q75 2 96 4q7 1 11.5 5t6 10.5t1.5 11.5t-1 12.5t-1 8.5h-7q-7 -1 -17.5 -2
t-22 -2t-23 -2.5t-17.5 -2.5zM349 201q-10 2 -31 4.5t-38.5 4t-17.5 0.5t-0.5 -8.5t-0.5 -12.5t1 -11.5t5.5 -10.5t12.5 -5q9 -1 33 -2t43 -2h19v8v11v7q0 2 -1 4t-3.5 4.5t-8 5t-13.5 3.5zM507 793q-100 0 -192 -39.5t-158 -105.5t-105.5 -158t-39.5 -192.5t39.5 -192
t105.5 -158t158 -105.5t192.5 -39t192 39t158 105.5t105.5 158t39 192.5q0 80 -25 155.5t-70.5 136.5t-106.5 107t-136.5 71t-156.5 25zM609 470h-1q2 -2 3.5 -5.5t1.5 -6.5q0 -10 -7.5 -16.5t-18 -6.5t-18 6.5t-7.5 16.5q0 7 4 12l21 26zM525 552l22 26l21 -26h-1
q3 -3 4 -6t1 -7q0 -9 -7.5 -15.5t-18 -6.5t-18 6.5t-7.5 15.5q0 4 1.5 7t3.5 6h-1zM506 496l22 -26h-1q4 -5 4 -12q0 -10 -7.5 -16.5t-18 -6.5t-18 6.5t-7.5 16.5q0 7 5 12h-1zM433 552l22 26l22 -26h-1q4 -6 4 -13q0 -9 -7.5 -15.5t-18 -6.5t-18 6.5t-7.5 15.5q0 7 5 13h-1
zM392 470l22 26l22 -26h-1q2 -2 3.5 -5.5t1.5 -6.5q0 -10 -7.5 -16.5t-18 -6.5t-18 6.5t-7.5 16.5q0 7 4 12h-1zM787 272l-26 -9q1 -4 3.5 -9.5t8.5 -17t9 -17.5q4 -7 4 -39v-141q0 -8 -1.5 -12.5t-5 -6.5t-10.5 -2h-78q-17 0 -17 17v33h-121h-92h-123v-33q0 -8 -4 -12.5
t-13 -4.5h-77q-7 0 -11 2t-5.5 6.5t-1.5 12.5q-1 20 -0.5 76t0.5 81q0 14 5 23l23 44q-2 0 -4 0.5t-9 3t-13 5.5q-10 4 -12 8t3 13q10 21 22 22q18 3 63 5q58 74 71 74h86h92h86q14 0 72 -74q45 -2 63 -5q11 -1 22 -22q3 -6 3 -9.5t-2.5 -6.5t-9.5 -5z" />
    <glyph glyph-name="uniE673" unicode="&#xe673;" 
d="M495 60zM496 61zM380 357h-58q-2 -10 -2.5 -20.5t-1.5 -21.5l59 -1q0 11 1 21.5t2 21.5zM398 442l-57 -2q-7 -20 -12 -41h58q4 22 11 43zM434 517l-50 -2q-14 -16 -25 -36h54q9 20 21 38zM285 233v1v-1zM493 429q6 25 15 47l-68 -3q-3 -7 -5.5 -14.5t-5 -14.5t-4.5 -15
h68zM550 552l-60 -3q-2 -1 -3 -3q-16 -16 -29 -37h64q12 23 28 43zM484 387h-69q-3 -22 -5 -45l69 -2q2 24 5 47zM409 301q0 -22 1 -44l70 -3q-2 23 -2 46v1l-69 1v-1zM496 161q-7 23 -11 48l-69 4q4 -24 11 -46zM643 454q-2 0 -12 -33q-14 -49 -14 -120.5t14 -120.5
q5 -16 8 -24.5t4 -8.5q2 0 12 33q2 9 4.5 19.5t4 22t3 24.5t2 26.5t0.5 27.5q0 72 -14 121q-10 32 -12 33zM631 86q-43 0 -65 75q-17 59 -17 139.5t17 139.5q22 75 65 75q6 0 11.5 -2t10.5 -5t10 -7l-1 4q-4 5 -8 9t-8.5 7t-9 5t-9.5 3t-9 1q-19 0 -37 -16.5t-32 -46.5
q-15 -33 -24 -77t-9 -93q0 -100 33 -170q30 -63 69 -63q15 0 30 11.5t28 33.5l1 9q-7 -11 -14 -18t-15 -10.5t-17 -3.5zM377 271v2h-58v-1q1 -21 3 -41l59 -2q-3 21 -4 42zM513.5 790q-100.5 0 -192 -39.5t-158 -105.5t-105.5 -158t-39 -192.5t39 -192t105.5 -158
t158 -105.5t192 -39t192.5 39t158 105.5t105.5 158t39.5 192t-39.5 192.5t-105.5 158t-158 105.5t-192.5 39.5zM719 109q-2 -5 -4.5 -10t-5.5 -9.5t-5.5 -9t-5.5 -8.5t-6 -7.5t-6 -7.5q-15 -16 -39 -25.5t-41 -11.5t-47 -4h-10q-25 -2 -51.5 -2t-51 2.5t-48 7.5t-37.5 15
q-40 28 -65 98t-25 158q0 79 20 144t53 99q19 18 43.5 25.5t59.5 10.5q54 5 107 3q29 -2 39.5 -3t32.5 -5t36.5 -13t27.5 -23q16 -20 29 -47q37 -79 37 -188.5t-37 -188.5zM388 186l-59 3q1 -5 2 -9t2 -8.5t2 -8.5t2.5 -8.5t2.5 -8.5l59 -5q-6 21 -11 45zM354 107l12 -23
q5 -11 12 -20l56 -5q-12 20 -22 45zM439 131q11 -27 25 -47l65 -6q-13 23 -22 49z" />
    <glyph glyph-name="uniE674" unicode="&#xe674;" 
d="M495 60zM496 61zM263 352q-25 0 -42.5 -18t-17.5 -43t17.5 -43t42.5 -18t43 18t18 43q0 12 -5 23.5t-13 19.5t-19.5 13t-23.5 5zM506 352q-25 0 -43 -18t-18 -43t18 -43t43 -18q12 0 23 5t19.5 13t13 19.5t4.5 23.5q0 37 -33 54q-13 7 -27 7zM748 352q-25 0 -42.5 -18
t-17.5 -43t17.5 -43t42.5 -18t43 18t18 43q0 12 -5 23.5t-13 19.5t-19 13t-24 5zM748 352z" />
    <glyph glyph-name="uniE675" unicode="&#xe675;" 
d="M495 60zM496 61zM696 102l21 12v32l-2 -1q-4 -2 -6.5 -3.5t-6 -3.5t-6.5 -3v-33zM696 58h3q8 0 13 6q2 2 3.5 4.5t1.5 5.5l-21 -11v-5zM557 279l-4 2q-2 1 -4.5 2t-3.5 2t-4.5 2.5t-4 2t-4.5 2.5v-33q25 -12 25 -13v33zM557 135q-9 5 -25 14v-33l25 -13v32zM557 207
q-4 2 -8.5 4.5t-8 4t-8.5 4.5v-32l1 -1h1l1 -1h1l1 -1h1l1 -1h1l1 -1h1l1 -1l1 -1h1l1 -1h1l1 -1h1l1 -1h1l1 -1h1l1 -1h1l1 -1h1v32zM650 414h22v-356h-22v356zM532 77q0 -4 1.5 -7.5t3.5 -5.5h1q2 -3 5.5 -4.5t7.5 -1.5h6v6zM717 400q-1 5 -5 8q-2 2 -4 3l-4 2q-2 1 -5 1
h-3v-25zM581 414h22v-356h-22v356zM557 350l-25 14v-33q14 -7 25 -13v32zM509 791q-101 0 -193 -39t-158 -105.5t-105 -158t-39 -192t39 -192.5t105 -158t158 -105.5t192.5 -39.5t192.5 39.5t158 105.5t105.5 158t39.5 192q0 205 -145 350t-350 145zM468 163h-46v37h-156v76
h49v59h-59v37l59 19v1h-59v37l59 18v3h-59v37l59 19v4h-59v37h59v31h64v-31h59v-2v-35v-2l-59 -19v-2h59v-37l-59 -19v-2h55l4 1v-1v-36v-1h-4l-55 -18v-2h59v-37h-59v-59h43v37h46v-150zM761 77q0 -26 -18 -44q-9 -8 -20 -13t-24 -5h-148q-26 0 -44 18t-18 44v318
q0 26 18 44v0q18 18 44 18h148q25 0 43 -18h1q4 -4 7 -9t5.5 -10.5t4 -11.5t1.5 -13v-318zM557 414h-6q-3 0 -5.5 -1t-4.5 -2t-3 -3h-1q-2 -2 -4 -6l24 -12v24zM696 317l21 12v32l-21 -12v-32zM696 174q8 4 21 11v33l-1 -1l-1 -1l-19 -10v-32zM696 245q3 2 6.5 4t8 4t6.5 4
v32q-1 0 -4 -2t-4.5 -2.5t-4 -2t-4.5 -2.5l-4 -2v-33zM603 435h47v-21h-47v21zM603 58h47v-21h-47v21zM557 435h24v-21h-24v21zM557 58h24v-21h-24v21zM672 58h24v-21h-24v21zM672 435h24v-21h-24v21zM533 402l-16 9v-39l15 -8v31q0 4 1 7zM517 339v-39q2 -1 4.5 -2.5
t5.5 -3.5l5 -2v39q-3 2 -8 5zM517 267v-39l4 -2q2 -1 3.5 -2t3.5 -2l4 -2v39q-1 1 -6.5 4t-8.5 4zM517 124v-39l15 -8v39zM517 196v-39q2 -2 4.5 -3t5.5 -2l5 -3v39q-11 6 -15 8zM564 275v39q-1 1 -3.5 2t-3.5 2v-39q1 -1 3.5 -2t3.5 -2zM564 347v39l-7 4v-40zM564 60v39
l-7 4v-39zM564 132v39q-1 0 -3 1.5t-4 2.5v-40q1 0 3 -1q3 -2 4 -2zM564 203v40q-6 3 -7 3v-39q1 -1 3.5 -2t3.5 -2zM738 228v39q-3 -1 -5.5 -2.5t-5 -2.5t-5.5 -2l-5 -3v-39q4 1 10.5 4.5t10.5 5.5zM738 157v39q-4 -2 -7.5 -4t-6 -3.5t-7.5 -3.5v-39q3 1 7 3t7.5 4t6.5 4z
M717 74l21 11v39l-21 -10v-37v-3zM717 395v-34l21 11v39l-21 -11v-5zM738 300v39l-11 -5q-7 -4 -10 -5v-40q3 2 10 5zM690 132q1 0 3 1t3 2v39q-1 -1 -3 -2t-3 -1v-39zM690 203q1 1 3 2t3 1v39q-1 0 -3 -1t-3 -1v-40zM690 275q1 1 3 2q2 0 3 1v39q-1 0 -2 -1l-4 -2v-39z
M690 60l6 3v39l-6 -3v-39zM690 347l6 2v40l-6 -3v-39z" />
    <glyph glyph-name="uniE676" unicode="&#xe676;" 
d="M152 688h305q9 0 14.5 -6t7.5 -18.5t2.5 -20.5t0 -25.5t-0.5 -22.5v-169q0 -6 0.5 -21.5t0 -24t-1.5 -19.5t-5.5 -17.5t-11.5 -9.5q-5 -2 -16 -3t-21 -0.5t-23 1t-18 0.5h-162q-7 0 -19.5 -0.5t-20.5 -0.5t-19 1t-17.5 3.5t-11.5 7.5t-6 13v309q6 18 23 23zM194 619v-220
h220v223h-219q-1 0 -1 -3zM562 688h305q6 -2 11 -5.5t8 -9t4 -12.5v-301q0 -4 -1.5 -7.5t-3.5 -6.5t-4 -5.5t-5.5 -4.5t-6.5 -3q-9 -2 -22 -2.5t-30.5 0.5t-24.5 1h-157q-7 0 -24.5 -1t-31 -1t-21.5 3t-12.5 9.5t-6.5 19t-2 21.5t0.5 25.5t0.5 22.5v158v24q-3 58 11 70
q6 4 13 5zM604 619v-220h220v223h-219q-2 0 -1 -3zM294 554q12 2 22 0t17.5 -8t12 -15t4.5 -20q0 -27 -22 -40t-45 -2q-7 4 -12 10t-7.5 13.5t-3.5 15.5t1.5 15.5t6.5 13.5t11 11t15 6zM704 554q39 8 51 -26q10 -30 -10 -51q-16 -16 -41 -12q-22 4 -30.5 24t0 40.5
t30.5 24.5zM455 -84h-302q-9 3 -15.5 9t-8.5 16v308q6 19 20 23q9 2 22 2.5t30.5 -0.5t24.5 -1h156q7 0 24.5 1t31 0.5t22.5 -2.5q8 -3 13 -9.5t6.5 -18.5t2 -21t0 -25.5t-0.5 -23.5v-162q0 -6 0.5 -24.5t0 -26.5t-2.5 -20t-8 -18t-16 -7zM194 203v-220h220v223h-219
q-1 0 -1 -3zM890 245v-86q-1 -7 -0.5 -46t-0.5 -47h-218v50q-5 2 -33 1.5t-34 -0.5q-2 -17 -1.5 -99.5t0.5 -101.5h-40q-10 2 -16 8.5t-8 18.5t-2 21.5t0.5 27t0.5 24.5v158q0 7 -1 25.5t-0.5 32t2.5 21.5q2 5 4.5 8.5t7 5.5t8 3.5t11 2t11.5 0.5h13h13h148v-136h69
q0 12 -0.5 68.5t1.5 67.5q12 1 23.5 0.5t20.5 -3t15 -8.5t6 -17zM300 140q25 2 40.5 -17.5t6.5 -45.5q-9 -23 -33.5 -27t-42.5 12.5t-10.5 45t39.5 32.5zM745 -84h-74v41q0 33 1 39h73v-80zM890 -4v-52q-4 -21 -24 -28h-52q0 8 -0.5 41t1.5 39h75z" />
    <glyph glyph-name="uniE677" unicode="&#xe677;" 
d="M793 257l-264 -241q-10 -9 -11 -23t9 -25l314 287q-9 10 -23 10.5t-25 -8.5zM835 225l-278 -253l13 -15l278 253zM673 183l-274 301l22 21l274 -301l46 42l-355 389q-13 15 -32.5 20t-40.5 -0.5t-37 -20.5l-75 -68q-9 -9 -16 -20t-10 -23t-2.5 -23.5t5 -23t12.5 -20.5
l355 -389zM357 530l23 20l22 -24l-22 -21zM209 689l12 10l43 -47l17 16l-76 83l-116 -106l76 -83l88 80zM924 27l-116 127l-177 -161l116 -128z" />
    </font>
</defs>
</svg>
